<?xml version="1.0" encoding="UTF-8" standalone="no"?>
<!DOCTYPE svg PUBLIC "-//W3C//DTD SVG 1.1//EN"
 "http://www.w3.org/Graphics/SVG/1.1/DTD/svg11.dtd">
<!-- Generated by graphviz version 2.38.0 (20140413.2041)
 -->
<!-- Title: G Pages: 1 -->
<svg width="764pt" height="1404pt"
 viewBox="0.00 0.00 763.93 1404.00" xmlns="http://www.w3.org/2000/svg" xmlns:xlink="http://www.w3.org/1999/xlink">
<g id="graph0" class="graph" transform="scale(1 1) rotate(0) translate(4 1400)">
<title>G</title>
<polygon fill="white" stroke="none" points="-4,4 -4,-1400 759.931,-1400 759.931,4 -4,4"/>
<g id="clust1" class="cluster"><title>cluster_Global</title>
<path fill="none" stroke="gray" d="M20,-44C20,-44 735.931,-44 735.931,-44 741.931,-44 747.931,-50 747.931,-56 747.931,-56 747.931,-1376 747.931,-1376 747.931,-1382 741.931,-1388 735.931,-1388 735.931,-1388 20,-1388 20,-1388 14,-1388 8,-1382 8,-1376 8,-1376 8,-56 8,-56 8,-50 14,-44 20,-44"/>
<text text-anchor="middle" x="377.965" y="-1375.2" font-family="Times New Roman,serif" font-size="11.00" fill="gray">Global</text>
</g>
<g id="clust2" class="cluster"><title>cluster_\NovemBit</title>
<path fill="none" stroke="gray" d="M28,-52C28,-52 727.931,-52 727.931,-52 733.931,-52 739.931,-58 739.931,-64 739.931,-64 739.931,-1348 739.931,-1348 739.931,-1354 733.931,-1360 727.931,-1360 727.931,-1360 28,-1360 28,-1360 22,-1360 16,-1354 16,-1348 16,-1348 16,-64 16,-64 16,-58 22,-52 28,-52"/>
<text text-anchor="middle" x="377.965" y="-1347.2" font-family="Times New Roman,serif" font-size="11.00" fill="gray">NovemBit</text>
</g>
<g id="clust3" class="cluster"><title>cluster_\NovemBit\i18n</title>
<path fill="none" stroke="gray" d="M36,-60C36,-60 719.931,-60 719.931,-60 725.931,-60 731.931,-66 731.931,-72 731.931,-72 731.931,-1320 731.931,-1320 731.931,-1326 725.931,-1332 719.931,-1332 719.931,-1332 36,-1332 36,-1332 30,-1332 24,-1326 24,-1320 24,-1320 24,-72 24,-72 24,-66 30,-60 36,-60"/>
<text text-anchor="middle" x="377.965" y="-1319.2" font-family="Times New Roman,serif" font-size="11.00" fill="gray">i18n</text>
</g>
<g id="clust9" class="cluster"><title>cluster_\NovemBit\i18n\system</title>
<path fill="none" stroke="gray" d="M44,-68C44,-68 325.839,-68 325.839,-68 331.839,-68 337.839,-74 337.839,-80 337.839,-80 337.839,-540 337.839,-540 337.839,-546 331.839,-552 325.839,-552 325.839,-552 44,-552 44,-552 38,-552 32,-546 32,-540 32,-540 32,-80 32,-80 32,-74 38,-68 44,-68"/>
<text text-anchor="middle" x="184.919" y="-539.2" font-family="Times New Roman,serif" font-size="11.00" fill="gray">system</text>
</g>
<g id="clust10" class="cluster"><title>cluster_\NovemBit\i18n\system\component</title>
<path fill="none" stroke="gray" d="M260.339,-452C260.339,-452 306.339,-452 306.339,-452 312.339,-452 318.339,-458 318.339,-464 318.339,-464 318.339,-512 318.339,-512 318.339,-518 312.339,-524 306.339,-524 306.339,-524 260.339,-524 260.339,-524 254.339,-524 248.339,-518 248.339,-512 248.339,-512 248.339,-464 248.339,-464 248.339,-458 254.339,-452 260.339,-452"/>
<text text-anchor="middle" x="283.339" y="-511.2" font-family="Times New Roman,serif" font-size="11.00" fill="gray">component</text>
</g>
<g id="clust11" class="cluster"><title>cluster_\NovemBit\i18n\system\exception</title>
<path fill="none" stroke="gray" d="M248.839,-372C248.839,-372 317.839,-372 317.839,-372 323.839,-372 329.839,-378 329.839,-384 329.839,-384 329.839,-432 329.839,-432 329.839,-438 323.839,-444 317.839,-444 317.839,-444 248.839,-444 248.839,-444 242.839,-444 236.839,-438 236.839,-432 236.839,-432 236.839,-384 236.839,-384 236.839,-378 242.839,-372 248.839,-372"/>
<text text-anchor="middle" x="283.339" y="-431.2" font-family="Times New Roman,serif" font-size="11.00" fill="gray">exception</text>
</g>
<g id="clust12" class="cluster"><title>cluster_\NovemBit\i18n\system\helpers</title>
<path fill="none" stroke="gray" d="M251.839,-238C251.839,-238 314.839,-238 314.839,-238 320.839,-238 326.839,-244 326.839,-250 326.839,-250 326.839,-352 326.839,-352 326.839,-358 320.839,-364 314.839,-364 314.839,-364 251.839,-364 251.839,-364 245.839,-364 239.839,-358 239.839,-352 239.839,-352 239.839,-250 239.839,-250 239.839,-244 245.839,-238 251.839,-238"/>
<text text-anchor="middle" x="283.339" y="-351.2" font-family="Times New Roman,serif" font-size="11.00" fill="gray">helpers</text>
</g>
<g id="clust13" class="cluster"><title>cluster_\NovemBit\i18n\system\parsers</title>
<path fill="none" stroke="gray" d="M252.339,-76C252.339,-76 314.339,-76 314.339,-76 320.339,-76 326.339,-82 326.339,-88 326.339,-88 326.339,-218 326.339,-218 326.339,-224 320.339,-230 314.339,-230 314.339,-230 252.339,-230 252.339,-230 246.339,-230 240.339,-224 240.339,-218 240.339,-218 240.339,-88 240.339,-88 240.339,-82 246.339,-76 252.339,-76"/>
<text text-anchor="middle" x="283.339" y="-217.2" font-family="Times New Roman,serif" font-size="11.00" fill="gray">parsers</text>
</g>
<g id="clust14" class="cluster"><title>cluster_\NovemBit\i18n\system\parsers\html</title>
<path fill="none" stroke="gray" d="M260.339,-130C260.339,-130 306.339,-130 306.339,-130 312.339,-130 318.339,-136 318.339,-142 318.339,-142 318.339,-190 318.339,-190 318.339,-196 312.339,-202 306.339,-202 306.339,-202 260.339,-202 260.339,-202 254.339,-202 248.339,-196 248.339,-190 248.339,-190 248.339,-142 248.339,-142 248.339,-136 254.339,-130 260.339,-130"/>
<text text-anchor="middle" x="283.339" y="-189.2" font-family="Times New Roman,serif" font-size="11.00" fill="gray">html</text>
</g>
<g id="clust8" class="cluster"><title>cluster_\NovemBit\i18n\models</title>
<path fill="none" stroke="gray" d="M446.431,-68C446.431,-68 699.431,-68 699.431,-68 705.431,-68 711.431,-74 711.431,-80 711.431,-80 711.431,-128 711.431,-128 711.431,-134 705.431,-140 699.431,-140 699.431,-140 446.431,-140 446.431,-140 440.431,-140 434.431,-134 434.431,-128 434.431,-128 434.431,-80 434.431,-80 434.431,-74 440.431,-68 446.431,-68"/>
<text text-anchor="middle" x="572.931" y="-127.2" font-family="Times New Roman,serif" font-size="11.00" fill="gray">models</text>
</g>
<g id="clust4" class="cluster"><title>cluster_\NovemBit\i18n\component</title>
<path fill="none" stroke="gray" d="M233.839,-560C233.839,-560 711.931,-560 711.931,-560 717.931,-560 723.931,-566 723.931,-572 723.931,-572 723.931,-1248 723.931,-1248 723.931,-1254 717.931,-1260 711.931,-1260 711.931,-1260 233.839,-1260 233.839,-1260 227.839,-1260 221.839,-1254 221.839,-1248 221.839,-1248 221.839,-572 221.839,-572 221.839,-566 227.839,-560 233.839,-560"/>
<text text-anchor="middle" x="472.885" y="-1247.2" font-family="Times New Roman,serif" font-size="11.00" fill="gray">component</text>
</g>
<g id="clust5" class="cluster"><title>cluster_\NovemBit\i18n\component\translation</title>
<path fill="none" stroke="gray" d="M241.839,-774C241.839,-774 703.931,-774 703.931,-774 709.931,-774 715.931,-780 715.931,-786 715.931,-786 715.931,-1220 715.931,-1220 715.931,-1226 709.931,-1232 703.931,-1232 703.931,-1232 241.839,-1232 241.839,-1232 235.839,-1232 229.839,-1226 229.839,-1220 229.839,-1220 229.839,-786 229.839,-786 229.839,-780 235.839,-774 241.839,-774"/>
<text text-anchor="middle" x="472.885" y="-1219.2" font-family="Times New Roman,serif" font-size="11.00" fill="gray">translation</text>
</g>
<g id="clust6" class="cluster"><title>cluster_\NovemBit\i18n\component\translation\method</title>
<path fill="none" stroke="gray" d="M453.431,-1024C453.431,-1024 695.931,-1024 695.931,-1024 701.931,-1024 707.931,-1030 707.931,-1036 707.931,-1036 707.931,-1192 707.931,-1192 707.931,-1198 701.931,-1204 695.931,-1204 695.931,-1204 453.431,-1204 453.431,-1204 447.431,-1204 441.431,-1198 441.431,-1192 441.431,-1192 441.431,-1036 441.431,-1036 441.431,-1030 447.431,-1024 453.431,-1024"/>
<text text-anchor="middle" x="574.681" y="-1191.2" font-family="Times New Roman,serif" font-size="11.00" fill="gray">method</text>
</g>
<g id="clust7" class="cluster"><title>cluster_\NovemBit\i18n\component\translation\type</title>
<path fill="none" stroke="gray" d="M453.431,-782C453.431,-782 680.931,-782 680.931,-782 686.931,-782 692.931,-788 692.931,-794 692.931,-794 692.931,-1004 692.931,-1004 692.931,-1010 686.931,-1016 680.931,-1016 680.931,-1016 453.431,-1016 453.431,-1016 447.431,-1016 441.431,-1010 441.431,-1004 441.431,-1004 441.431,-794 441.431,-794 441.431,-788 447.431,-782 453.431,-782"/>
<text text-anchor="middle" x="567.181" y="-1003.2" font-family="Times New Roman,serif" font-size="11.00" fill="gray">type</text>
</g>
<!-- \\NovemBit\\i18n\\component\\translation\\method\\Dummy -->
<g id="node1" class="node"><title>\\NovemBit\\i18n\\component\\translation\\method\\Dummy</title>
<polygon fill="none" stroke="black" points="684.931,-1176 630.931,-1176 630.931,-1140 684.931,-1140 684.931,-1176"/>
<text text-anchor="middle" x="657.931" y="-1155.2" font-family="Courier,monospace" font-size="11.00">Dummy</text>
</g>
<!-- \\NovemBit\\i18n\\component\\translation\\method\\Method -->
<g id="node3" class="node"><title>\\NovemBit\\i18n\\component\\translation\\method\\Method</title>
<polygon fill="none" stroke="black" points="533.431,-1095 449.431,-1095 449.431,-1059 533.431,-1059 533.431,-1095"/>
<text text-anchor="start" x="457.431" y="-1080.2" font-family="Courier,monospace" font-size="11.00">«abstract»</text>
<text text-anchor="start" x="470.931" y="-1068.2" font-family="Courier,monospace" font-size="11.00">Method</text>
</g>
<!-- \\NovemBit\\i18n\\component\\translation\\method\\Dummy&#45;&gt;\\NovemBit\\i18n\\component\\translation\\method\\Method -->
<g id="edge4" class="edge"><title>\\NovemBit\\i18n\\component\\translation\\method\\Dummy&#45;&gt;\\NovemBit\\i18n\\component\\translation\\method\\Method</title>
<path fill="none" stroke="black" d="M630.865,-1145.17C605.989,-1132.92 567.977,-1114.2 538.075,-1099.48"/>
<polygon fill="none" stroke="black" points="539.596,-1096.32 529.078,-1095.05 536.504,-1102.6 539.596,-1096.32"/>
</g>
<!-- \\NovemBit\\i18n\\component\\translation\\method\\Google -->
<g id="node2" class="node"><title>\\NovemBit\\i18n\\component\\translation\\method\\Google</title>
<polygon fill="none" stroke="black" points="686.431,-1122 629.431,-1122 629.431,-1086 686.431,-1086 686.431,-1122"/>
<text text-anchor="middle" x="657.931" y="-1101.2" font-family="Courier,monospace" font-size="11.00">Google</text>
</g>
<!-- \\NovemBit\\i18n\\component\\translation\\method\\Google&#45;&gt;\\NovemBit\\i18n\\component\\translation\\method\\Method -->
<g id="edge5" class="edge"><title>\\NovemBit\\i18n\\component\\translation\\method\\Google&#45;&gt;\\NovemBit\\i18n\\component\\translation\\method\\Method</title>
<path fill="none" stroke="black" d="M629.397,-1099.48C606.1,-1095.66 572.084,-1090.07 543.78,-1085.43"/>
<polygon fill="none" stroke="black" points="544.076,-1081.93 533.641,-1083.76 542.942,-1088.84 544.076,-1081.93"/>
</g>
<!-- \\NovemBit\\i18n\\component\\translation\\Translation -->
<g id="node10" class="node"><title>\\NovemBit\\i18n\\component\\translation\\Translation</title>
<polygon fill="none" stroke="black" points="328.839,-907 237.839,-907 237.839,-871 328.839,-871 328.839,-907"/>
<text text-anchor="start" x="249.339" y="-892.2" font-family="Courier,monospace" font-size="11.00">«abstract»</text>
<text text-anchor="start" x="245.839" y="-880.2" font-family="Courier,monospace" font-size="11.00">Translation</text>
</g>
<!-- \\NovemBit\\i18n\\component\\translation\\method\\Method&#45;&gt;\\NovemBit\\i18n\\component\\translation\\Translation -->
<g id="edge6" class="edge"><title>\\NovemBit\\i18n\\component\\translation\\method\\Method&#45;&gt;\\NovemBit\\i18n\\component\\translation\\Translation</title>
<path fill="none" stroke="black" d="M470.265,-1058.82C459.011,-1048.12 445.145,-1033.99 434.431,-1020 400.266,-975.405 415.321,-944.775 370.431,-911 361.182,-904.042 349.961,-899.272 338.717,-896.006"/>
<polygon fill="none" stroke="black" points="339.433,-892.577 328.879,-893.506 337.709,-899.362 339.433,-892.577"/>
</g>
<!-- \\NovemBit\\i18n\\component\\translation\\method\\RestMethod -->
<g id="node4" class="node"><title>\\NovemBit\\i18n\\component\\translation\\method\\RestMethod</title>
<polygon fill="none" stroke="black" points="699.931,-1068 615.931,-1068 615.931,-1032 699.931,-1032 699.931,-1068"/>
<text text-anchor="middle" x="657.931" y="-1047.2" font-family="Courier,monospace" font-size="11.00">RestMethod</text>
</g>
<!-- \\NovemBit\\i18n\\component\\translation\\method\\RestMethod&#45;&gt;\\NovemBit\\i18n\\component\\translation\\method\\Method -->
<g id="edge7" class="edge"><title>\\NovemBit\\i18n\\component\\translation\\method\\RestMethod&#45;&gt;\\NovemBit\\i18n\\component\\translation\\method\\Method</title>
<path fill="none" stroke="black" d="M615.845,-1056.74C593.96,-1060.34 566.837,-1064.79 543.596,-1068.6"/>
<polygon fill="none" stroke="black" points="542.864,-1065.18 533.563,-1070.25 543.998,-1072.08 542.864,-1065.18"/>
</g>
<!-- \\NovemBit\\i18n\\component\\translation\\type\\HTML -->
<g id="node5" class="node"><title>\\NovemBit\\i18n\\component\\translation\\type\\HTML</title>
<polygon fill="none" stroke="black" points="684.931,-988 630.931,-988 630.931,-952 684.931,-952 684.931,-988"/>
<text text-anchor="middle" x="657.931" y="-967.2" font-family="Courier,monospace" font-size="11.00">HTML</text>
</g>
<!-- \\NovemBit\\i18n\\component\\translation\\type\\Type -->
<g id="node8" class="node"><title>\\NovemBit\\i18n\\component\\translation\\type\\Type</title>
<polygon fill="none" stroke="black" points="533.431,-907 449.431,-907 449.431,-871 533.431,-871 533.431,-907"/>
<text text-anchor="start" x="457.431" y="-892.2" font-family="Courier,monospace" font-size="11.00">«abstract»</text>
<text text-anchor="start" x="477.431" y="-880.2" font-family="Courier,monospace" font-size="11.00">Type</text>
</g>
<!-- \\NovemBit\\i18n\\component\\translation\\type\\HTML&#45;&gt;\\NovemBit\\i18n\\component\\translation\\type\\Type -->
<g id="edge9" class="edge"><title>\\NovemBit\\i18n\\component\\translation\\type\\HTML&#45;&gt;\\NovemBit\\i18n\\component\\translation\\type\\Type</title>
<path fill="none" stroke="black" d="M630.865,-957.165C605.989,-944.916 567.977,-926.199 538.075,-911.475"/>
<polygon fill="none" stroke="black" points="539.596,-908.323 529.078,-907.045 536.504,-914.603 539.596,-908.323"/>
</g>
<!-- \\NovemBit\\i18n\\component\\translation\\type\\JSON -->
<g id="node6" class="node"><title>\\NovemBit\\i18n\\component\\translation\\type\\JSON</title>
<polygon fill="none" stroke="black" points="684.931,-934 630.931,-934 630.931,-898 684.931,-898 684.931,-934"/>
<text text-anchor="middle" x="657.931" y="-913.2" font-family="Courier,monospace" font-size="11.00">JSON</text>
</g>
<!-- \\NovemBit\\i18n\\component\\translation\\type\\JSON&#45;&gt;\\NovemBit\\i18n\\component\\translation\\type\\Type -->
<g id="edge10" class="edge"><title>\\NovemBit\\i18n\\component\\translation\\type\\JSON&#45;&gt;\\NovemBit\\i18n\\component\\translation\\type\\Type</title>
<path fill="none" stroke="black" d="M630.865,-911.722C607.445,-907.878 572.382,-902.123 543.405,-897.367"/>
<polygon fill="none" stroke="black" points="543.873,-893.897 533.438,-895.731 542.739,-900.804 543.873,-893.897"/>
</g>
<!-- \\NovemBit\\i18n\\component\\translation\\type\\Text -->
<g id="node7" class="node"><title>\\NovemBit\\i18n\\component\\translation\\type\\Text</title>
<polygon fill="none" stroke="black" points="684.931,-880 630.931,-880 630.931,-844 684.931,-844 684.931,-880"/>
<text text-anchor="middle" x="657.931" y="-859.2" font-family="Courier,monospace" font-size="11.00">Text</text>
</g>
<!-- \\NovemBit\\i18n\\component\\translation\\type\\Text&#45;&gt;\\NovemBit\\i18n\\component\\translation\\type\\Type -->
<g id="edge11" class="edge"><title>\\NovemBit\\i18n\\component\\translation\\type\\Text&#45;&gt;\\NovemBit\\i18n\\component\\translation\\type\\Type</title>
<path fill="none" stroke="black" d="M630.865,-866.278C607.445,-870.122 572.382,-875.877 543.405,-880.633"/>
<polygon fill="none" stroke="black" points="542.739,-877.196 533.438,-882.269 543.873,-884.103 542.739,-877.196"/>
</g>
<!-- \\NovemBit\\i18n\\component\\translation\\type\\Type&#45;&gt;\\NovemBit\\i18n\\component\\translation\\Translation -->
<g id="edge12" class="edge"><title>\\NovemBit\\i18n\\component\\translation\\type\\Type&#45;&gt;\\NovemBit\\i18n\\component\\translation\\Translation</title>
<path fill="none" stroke="black" d="M449.22,-889C417.71,-889 373.958,-889 339.441,-889"/>
<polygon fill="none" stroke="black" points="339.05,-885.5 329.05,-889 339.05,-892.5 339.05,-885.5"/>
</g>
<!-- \\NovemBit\\i18n\\component\\translation\\type\\URL -->
<g id="node9" class="node"><title>\\NovemBit\\i18n\\component\\translation\\type\\URL</title>
<polygon fill="none" stroke="black" points="684.931,-826 630.931,-826 630.931,-790 684.931,-790 684.931,-826"/>
<text text-anchor="middle" x="657.931" y="-805.2" font-family="Courier,monospace" font-size="11.00">URL</text>
</g>
<!-- \\NovemBit\\i18n\\component\\translation\\type\\URL&#45;&gt;\\NovemBit\\i18n\\component\\translation\\type\\Type -->
<g id="edge13" class="edge"><title>\\NovemBit\\i18n\\component\\translation\\type\\URL&#45;&gt;\\NovemBit\\i18n\\component\\translation\\type\\Type</title>
<path fill="none" stroke="black" d="M630.703,-821.651C609.024,-832.854 577.151,-849.138 541.251,-866.546"/>
<polygon fill="none" stroke="black" points="539.524,-863.493 532.041,-870.993 542.568,-869.797 539.524,-863.493"/>
</g>
<!-- \\NovemBit\\i18n\\system\\Component -->
<g id="node23" class="node"><title>\\NovemBit\\i18n\\system\\Component</title>
<polygon fill="none" stroke="black" points="124,-524 40,-524 40,-488 124,-488 124,-524"/>
<text text-anchor="start" x="48" y="-509.2" font-family="Courier,monospace" font-size="11.00">«abstract»</text>
<text text-anchor="start" x="51.5" y="-497.2" font-family="Courier,monospace" font-size="11.00">Component</text>
</g>
<!-- \\NovemBit\\i18n\\component\\translation\\Translation&#45;&gt;\\NovemBit\\i18n\\system\\Component -->
<g id="edge8" class="edge"><title>\\NovemBit\\i18n\\component\\translation\\Translation&#45;&gt;\\NovemBit\\i18n\\system\\Component</title>
<path fill="none" stroke="black" d="M237.422,-886.179C222.719,-883.175 207.332,-877.505 196.246,-867 99.5945,-775.413 85.0018,-602.514 83.1144,-534.506"/>
<polygon fill="none" stroke="black" points="86.6066,-534.082 82.9053,-524.155 79.6081,-534.224 86.6066,-534.082"/>
</g>
<!-- \\NovemBit\\i18n\\component\\Languages -->
<g id="node11" class="node"><title>\\NovemBit\\i18n\\component\\Languages</title>
<polygon fill="none" stroke="black" points="696.431,-604 619.431,-604 619.431,-568 696.431,-568 696.431,-604"/>
<text text-anchor="middle" x="657.931" y="-583.2" font-family="Courier,monospace" font-size="11.00">Languages</text>
</g>
<!-- \\NovemBit\\i18n\\component\\Languages&#45;&gt;\\NovemBit\\i18n\\system\\Component -->
<g id="edge1" class="edge"><title>\\NovemBit\\i18n\\component\\Languages&#45;&gt;\\NovemBit\\i18n\\system\\Component</title>
<path fill="none" stroke="black" d="M490.431,-694C335.115,-706.511 173.779,-584.703 110.646,-530.833"/>
<polygon fill="none" stroke="black" points="112.601,-527.896 102.746,-524.006 108.024,-533.192 112.601,-527.896"/>
<path fill="none" stroke="black" d="M626.648,-604.104C621.867,-607.04 616.997,-610.076 612.431,-613 558.242,-647.699 556.7,-697.14 492.431,-694"/>
</g>
<!-- \\NovemBit\\i18n\\component\\Request -->
<g id="node12" class="node"><title>\\NovemBit\\i18n\\component\\Request</title>
<polygon fill="none" stroke="black" points="689.931,-658 625.931,-658 625.931,-622 689.931,-622 689.931,-658"/>
<text text-anchor="middle" x="657.931" y="-637.2" font-family="Courier,monospace" font-size="11.00">Request</text>
</g>
<!-- \\NovemBit\\i18n\\component\\Request&#45;&gt;\\NovemBit\\i18n\\system\\Component -->
<g id="edge2" class="edge"><title>\\NovemBit\\i18n\\component\\Request&#45;&gt;\\NovemBit\\i18n\\system\\Component</title>
<path fill="none" stroke="black" d="M625.753,-657.766C593.369,-674.394 540.767,-696.362 492.431,-694"/>
</g>
<!-- \\NovemBit\\i18n\\component\\Rest -->
<g id="node13" class="node"><title>\\NovemBit\\i18n\\component\\Rest</title>
<polygon fill="none" stroke="black" points="684.931,-712 630.931,-712 630.931,-676 684.931,-676 684.931,-712"/>
<text text-anchor="middle" x="657.931" y="-691.2" font-family="Courier,monospace" font-size="11.00">Rest</text>
</g>
<!-- \\NovemBit\\i18n\\component\\Rest&#45;&gt;\\NovemBit\\i18n\\system\\Component -->
<g id="edge3" class="edge"><title>\\NovemBit\\i18n\\component\\Rest&#45;&gt;\\NovemBit\\i18n\\system\\Component</title>
<path fill="none" stroke="black" d="M630.7,-694.788C598.219,-695.583 541.209,-696.383 492.431,-694"/>
</g>
<!-- \\NovemBit\\i18n\\component\\Translation -->
<g id="node14" class="node"><title>\\NovemBit\\i18n\\component\\Translation</title>
<polygon fill="none" stroke="black" points="703.431,-766 612.431,-766 612.431,-730 703.431,-730 703.431,-766"/>
<text text-anchor="middle" x="657.931" y="-745.2" font-family="Courier,monospace" font-size="11.00">Translation</text>
</g>
<!-- \\NovemBit\\i18n\\component\\Translation&#45;&gt;\\NovemBit\\i18n\\system\\Component -->
<g id="edge14" class="edge"><title>\\NovemBit\\i18n\\component\\Translation&#45;&gt;\\NovemBit\\i18n\\system\\Component</title>
<path fill="none" stroke="black" d="M620.779,-729.899C588.152,-715.094 538.365,-696.244 492.431,-694"/>
</g>
<!-- \\NovemBit\\i18n\\models\\ActiveRecord -->
<g id="node15" class="node"><title>\\NovemBit\\i18n\\models\\ActiveRecord</title>
<polygon fill="none" stroke="black" points="540.431,-112 442.431,-112 442.431,-76 540.431,-76 540.431,-112"/>
<text text-anchor="middle" x="491.431" y="-91.2" font-family="Courier,monospace" font-size="11.00">ActiveRecord</text>
</g>
<!-- \\yii\\db\\ActiveRecord -->
<g id="node25" class="node"><title>\\yii\\db\\ActiveRecord</title>
<ellipse fill="none" stroke="black" cx="283.339" cy="-18" rx="87.1846" ry="18"/>
<text text-anchor="middle" x="283.339" y="-14.3" font-family="Times New Roman,serif" font-size="14.00" fill="gray">\yii\db\ActiveRecord</text>
</g>
<!-- \\NovemBit\\i18n\\models\\ActiveRecord&#45;&gt;\\yii\\db\\ActiveRecord -->
<g id="edge15" class="edge"><title>\\NovemBit\\i18n\\models\\ActiveRecord&#45;&gt;\\yii\\db\\ActiveRecord</title>
<path fill="none" stroke="black" d="M442.371,-76.2773C410.681,-64.5908 369.177,-49.2857 336.656,-37.2929"/>
<polygon fill="none" stroke="black" points="337.465,-33.8611 326.872,-33.685 335.043,-40.4288 337.465,-33.8611"/>
</g>
<!-- \\NovemBit\\i18n\\models\\Translation -->
<g id="node16" class="node"><title>\\NovemBit\\i18n\\models\\Translation</title>
<polygon fill="none" stroke="black" points="703.431,-112 612.431,-112 612.431,-76 703.431,-76 703.431,-112"/>
<text text-anchor="middle" x="657.931" y="-91.2" font-family="Courier,monospace" font-size="11.00">Translation</text>
</g>
<!-- \\NovemBit\\i18n\\models\\Translation&#45;&gt;\\NovemBit\\i18n\\models\\ActiveRecord -->
<g id="edge16" class="edge"><title>\\NovemBit\\i18n\\models\\Translation&#45;&gt;\\NovemBit\\i18n\\models\\ActiveRecord</title>
<path fill="none" stroke="black" d="M612.415,-94C593.367,-94 570.873,-94 550.539,-94"/>
<polygon fill="none" stroke="black" points="550.445,-90.5001 540.445,-94 550.445,-97.5001 550.445,-90.5001"/>
</g>
<!-- \\NovemBit\\i18n\\system\\component\\DB -->
<g id="node17" class="node"><title>\\NovemBit\\i18n\\system\\component\\DB</title>
<polygon fill="none" stroke="black" points="310.339,-496 256.339,-496 256.339,-460 310.339,-460 310.339,-496"/>
<text text-anchor="middle" x="283.339" y="-475.2" font-family="Courier,monospace" font-size="11.00">DB</text>
</g>
<!-- \\NovemBit\\i18n\\system\\component\\DB&#45;&gt;\\NovemBit\\i18n\\system\\Component -->
<g id="edge18" class="edge"><title>\\NovemBit\\i18n\\system\\component\\DB&#45;&gt;\\NovemBit\\i18n\\system\\Component</title>
<path fill="none" stroke="black" d="M256.278,-481.661C225.472,-485.988 173.467,-493.293 134.45,-498.773"/>
<polygon fill="none" stroke="black" points="133.742,-495.338 124.326,-500.195 134.715,-502.27 133.742,-495.338"/>
</g>
<!-- \\NovemBit\\i18n\\system\\exception\\Exception -->
<g id="node18" class="node"><title>\\NovemBit\\i18n\\system\\exception\\Exception</title>
<polygon fill="none" stroke="black" points="321.839,-416 244.839,-416 244.839,-380 321.839,-380 321.839,-416"/>
<text text-anchor="middle" x="283.339" y="-395.2" font-family="Courier,monospace" font-size="11.00">Exception</text>
</g>
<!-- \\Exception -->
<g id="node26" class="node"><title>\\Exception</title>
<ellipse fill="none" stroke="black" cx="82" cy="-18" rx="42.4939" ry="18"/>
<text text-anchor="middle" x="82" y="-14.3" font-family="Times New Roman,serif" font-size="14.00" fill="gray">xception</text>
</g>
<!-- \\NovemBit\\i18n\\system\\exception\\Exception&#45;&gt;\\Exception -->
<g id="edge19" class="edge"><title>\\NovemBit\\i18n\\system\\exception\\Exception&#45;&gt;\\Exception</title>
<path fill="none" stroke="black" d="M244.729,-393.232C227.7,-389.198 208.651,-381.75 196.246,-368 103.237,-264.907 188.581,-187.045 124.246,-64 120.103,-56.0748 114.283,-48.4326 108.319,-41.7297"/>
<polygon fill="none" stroke="black" points="110.749,-39.2058 101.342,-34.3318 105.657,-44.0084 110.749,-39.2058"/>
</g>
<!-- \\NovemBit\\i18n\\system\\helpers\\DataType -->
<g id="node19" class="node"><title>\\NovemBit\\i18n\\system\\helpers\\DataType</title>
<polygon fill="none" stroke="black" points="318.839,-336 247.839,-336 247.839,-300 318.839,-300 318.839,-336"/>
<text text-anchor="middle" x="283.339" y="-315.2" font-family="Courier,monospace" font-size="11.00">DataType</text>
</g>
<!-- \\NovemBit\\i18n\\system\\helpers\\URL -->
<g id="node20" class="node"><title>\\NovemBit\\i18n\\system\\helpers\\URL</title>
<polygon fill="none" stroke="black" points="310.339,-282 256.339,-282 256.339,-246 310.339,-246 310.339,-282"/>
<text text-anchor="middle" x="283.339" y="-261.2" font-family="Courier,monospace" font-size="11.00">URL</text>
</g>
<!-- \\NovemBit\\i18n\\system\\parsers\\html\\Rule -->
<g id="node21" class="node"><title>\\NovemBit\\i18n\\system\\parsers\\html\\Rule</title>
<polygon fill="none" stroke="black" points="310.339,-174 256.339,-174 256.339,-138 310.339,-138 310.339,-174"/>
<text text-anchor="middle" x="283.339" y="-153.2" font-family="Courier,monospace" font-size="11.00">Rule</text>
</g>
<!-- \\NovemBit\\i18n\\system\\parsers\\HTML -->
<g id="node22" class="node"><title>\\NovemBit\\i18n\\system\\parsers\\HTML</title>
<polygon fill="none" stroke="black" points="310.339,-120 256.339,-120 256.339,-84 310.339,-84 310.339,-120"/>
<text text-anchor="middle" x="283.339" y="-99.2" font-family="Courier,monospace" font-size="11.00">HTML</text>
</g>
<!-- \\NovemBit\\i18n\\Module -->
<g id="node24" class="node"><title>\\NovemBit\\i18n\\Module</title>
<polygon fill="none" stroke="black" points="311.839,-1304 254.839,-1304 254.839,-1268 311.839,-1268 311.839,-1304"/>
<text text-anchor="middle" x="283.339" y="-1283.2" font-family="Courier,monospace" font-size="11.00">Module</text>
</g>
<!-- \\NovemBit\\i18n\\Module&#45;&gt;\\NovemBit\\i18n\\system\\Component -->
<g id="edge17" class="edge"><title>\\NovemBit\\i18n\\Module&#45;&gt;\\NovemBit\\i18n\\system\\Component</title>
<path fill="none" stroke="black" d="M254.562,-1277.14C235.065,-1269.43 210.09,-1256.27 196.246,-1236 115.838,-1118.28 89.6817,-654.513 84.1899,-534.485"/>
<polygon fill="none" stroke="black" points="87.6765,-534.104 83.735,-524.27 80.6835,-534.416 87.6765,-534.104"/>
</g>
</g>
</svg>
