<?xml version="1.0" encoding="UTF-8" standalone="no"?>
<!DOCTYPE svg PUBLIC "-//W3C//DTD SVG 1.1//EN"
 "http://www.w3.org/Graphics/SVG/1.1/DTD/svg11.dtd">
<!-- Generated by graphviz version 2.38.0 (20140413.2041)
 -->
<!-- Title: G Pages: 1 -->
<svg width="780pt" height="1528pt"
 viewBox="0.00 0.00 779.93 1528.00" xmlns="http://www.w3.org/2000/svg" xmlns:xlink="http://www.w3.org/1999/xlink">
<g id="graph0" class="graph" transform="scale(1 1) rotate(0) translate(4 1524)">
<title>G</title>
<polygon fill="white" stroke="none" points="-4,4 -4,-1524 775.931,-1524 775.931,4 -4,4"/>
<g id="clust1" class="cluster"><title>cluster_Global</title>
<path fill="none" stroke="gray" d="M20,-44C20,-44 751.931,-44 751.931,-44 757.931,-44 763.931,-50 763.931,-56 763.931,-56 763.931,-1500 763.931,-1500 763.931,-1506 757.931,-1512 751.931,-1512 751.931,-1512 20,-1512 20,-1512 14,-1512 8,-1506 8,-1500 8,-1500 8,-56 8,-56 8,-50 14,-44 20,-44"/>
<text text-anchor="middle" x="385.965" y="-1499.2" font-family="Times New Roman,serif" font-size="11.00" fill="gray">Global</text>
</g>
<g id="clust2" class="cluster"><title>cluster_\NovemBit</title>
<path fill="none" stroke="gray" d="M28,-52C28,-52 743.931,-52 743.931,-52 749.931,-52 755.931,-58 755.931,-64 755.931,-64 755.931,-1472 755.931,-1472 755.931,-1478 749.931,-1484 743.931,-1484 743.931,-1484 28,-1484 28,-1484 22,-1484 16,-1478 16,-1472 16,-1472 16,-64 16,-64 16,-58 22,-52 28,-52"/>
<text text-anchor="middle" x="385.965" y="-1471.2" font-family="Times New Roman,serif" font-size="11.00" fill="gray">NovemBit</text>
</g>
<g id="clust3" class="cluster"><title>cluster_\NovemBit\i18n</title>
<path fill="none" stroke="gray" d="M36,-60C36,-60 735.931,-60 735.931,-60 741.931,-60 747.931,-66 747.931,-72 747.931,-72 747.931,-1444 747.931,-1444 747.931,-1450 741.931,-1456 735.931,-1456 735.931,-1456 36,-1456 36,-1456 30,-1456 24,-1450 24,-1444 24,-1444 24,-72 24,-72 24,-66 30,-60 36,-60"/>
<text text-anchor="middle" x="385.965" y="-1443.2" font-family="Times New Roman,serif" font-size="11.00" fill="gray">i18n</text>
</g>
<g id="clust12" class="cluster"><title>cluster_\NovemBit\i18n\models</title>
<path fill="none" stroke="gray" d="M462.431,-68C462.431,-68 715.431,-68 715.431,-68 721.431,-68 727.431,-74 727.431,-80 727.431,-80 727.431,-128 727.431,-128 727.431,-134 721.431,-140 715.431,-140 715.431,-140 462.431,-140 462.431,-140 456.431,-140 450.431,-134 450.431,-128 450.431,-128 450.431,-80 450.431,-80 450.431,-74 456.431,-68 462.431,-68"/>
<text text-anchor="middle" x="588.931" y="-127.2" font-family="Times New Roman,serif" font-size="11.00" fill="gray">models</text>
</g>
<g id="clust13" class="cluster"><title>cluster_\NovemBit\i18n\system</title>
<path fill="none" stroke="gray" d="M60,-68C60,-68 341.839,-68 341.839,-68 347.839,-68 353.839,-74 353.839,-80 353.839,-80 353.839,-540 353.839,-540 353.839,-546 347.839,-552 341.839,-552 341.839,-552 60,-552 60,-552 54,-552 48,-546 48,-540 48,-540 48,-80 48,-80 48,-74 54,-68 60,-68"/>
<text text-anchor="middle" x="200.919" y="-539.2" font-family="Times New Roman,serif" font-size="11.00" fill="gray">system</text>
</g>
<g id="clust14" class="cluster"><title>cluster_\NovemBit\i18n\system\helpers</title>
<path fill="none" stroke="gray" d="M267.839,-398C267.839,-398 330.839,-398 330.839,-398 336.839,-398 342.839,-404 342.839,-410 342.839,-410 342.839,-512 342.839,-512 342.839,-518 336.839,-524 330.839,-524 330.839,-524 267.839,-524 267.839,-524 261.839,-524 255.839,-518 255.839,-512 255.839,-512 255.839,-410 255.839,-410 255.839,-404 261.839,-398 267.839,-398"/>
<text text-anchor="middle" x="299.339" y="-511.2" font-family="Times New Roman,serif" font-size="11.00" fill="gray">helpers</text>
</g>
<g id="clust15" class="cluster"><title>cluster_\NovemBit\i18n\system\exception</title>
<path fill="none" stroke="gray" d="M264.839,-318C264.839,-318 333.839,-318 333.839,-318 339.839,-318 345.839,-324 345.839,-330 345.839,-330 345.839,-378 345.839,-378 345.839,-384 339.839,-390 333.839,-390 333.839,-390 264.839,-390 264.839,-390 258.839,-390 252.839,-384 252.839,-378 252.839,-378 252.839,-330 252.839,-330 252.839,-324 258.839,-318 264.839,-318"/>
<text text-anchor="middle" x="299.339" y="-377.2" font-family="Times New Roman,serif" font-size="11.00" fill="gray">exception</text>
</g>
<g id="clust16" class="cluster"><title>cluster_\NovemBit\i18n\system\parsers</title>
<path fill="none" stroke="gray" d="M268.339,-156C268.339,-156 330.339,-156 330.339,-156 336.339,-156 342.339,-162 342.339,-168 342.339,-168 342.339,-298 342.339,-298 342.339,-304 336.339,-310 330.339,-310 330.339,-310 268.339,-310 268.339,-310 262.339,-310 256.339,-304 256.339,-298 256.339,-298 256.339,-168 256.339,-168 256.339,-162 262.339,-156 268.339,-156"/>
<text text-anchor="middle" x="299.339" y="-297.2" font-family="Times New Roman,serif" font-size="11.00" fill="gray">parsers</text>
</g>
<g id="clust17" class="cluster"><title>cluster_\NovemBit\i18n\system\parsers\html</title>
<path fill="none" stroke="gray" d="M276.339,-210C276.339,-210 322.339,-210 322.339,-210 328.339,-210 334.339,-216 334.339,-222 334.339,-222 334.339,-270 334.339,-270 334.339,-276 328.339,-282 322.339,-282 322.339,-282 276.339,-282 276.339,-282 270.339,-282 264.339,-276 264.339,-270 264.339,-270 264.339,-222 264.339,-222 264.339,-216 270.339,-210 276.339,-210"/>
<text text-anchor="middle" x="299.339" y="-269.2" font-family="Times New Roman,serif" font-size="11.00" fill="gray">html</text>
</g>
<g id="clust18" class="cluster"><title>cluster_\NovemBit\i18n\system\component</title>
<path fill="none" stroke="gray" d="M276.339,-76C276.339,-76 322.339,-76 322.339,-76 328.339,-76 334.339,-82 334.339,-88 334.339,-88 334.339,-136 334.339,-136 334.339,-142 328.339,-148 322.339,-148 322.339,-148 276.339,-148 276.339,-148 270.339,-148 264.339,-142 264.339,-136 264.339,-136 264.339,-88 264.339,-88 264.339,-82 270.339,-76 276.339,-76"/>
<text text-anchor="middle" x="299.339" y="-135.2" font-family="Times New Roman,serif" font-size="11.00" fill="gray">component</text>
</g>
<g id="clust4" class="cluster"><title>cluster_\NovemBit\i18n\component</title>
<path fill="none" stroke="gray" d="M44,-604C44,-604 727.931,-604 727.931,-604 733.931,-604 739.931,-610 739.931,-616 739.931,-616 739.931,-1416 739.931,-1416 739.931,-1422 733.931,-1428 727.931,-1428 727.931,-1428 44,-1428 44,-1428 38,-1428 32,-1422 32,-1416 32,-1416 32,-616 32,-616 32,-610 38,-604 44,-604"/>
<text text-anchor="middle" x="385.965" y="-1415.2" font-family="Times New Roman,serif" font-size="11.00" fill="gray">component</text>
</g>
<g id="clust11" class="cluster"><title>cluster_\NovemBit\i18n\component\interfaces</title>
<path fill="none" stroke="gray" d="M465.931,-630C465.931,-630 548.931,-630 548.931,-630 554.931,-630 560.931,-636 560.931,-642 560.931,-642 560.931,-798 560.931,-798 560.931,-804 554.931,-810 548.931,-810 548.931,-810 465.931,-810 465.931,-810 459.931,-810 453.931,-804 453.931,-798 453.931,-798 453.931,-642 453.931,-642 453.931,-636 459.931,-630 465.931,-630"/>
<text text-anchor="middle" x="507.431" y="-797.2" font-family="Times New Roman,serif" font-size="11.00" fill="gray">interfaces</text>
</g>
<g id="clust5" class="cluster"><title>cluster_\NovemBit\i18n\component\translation</title>
<path fill="none" stroke="gray" d="M52,-818C52,-818 719.931,-818 719.931,-818 725.931,-818 731.931,-824 731.931,-830 731.931,-830 731.931,-1388 731.931,-1388 731.931,-1394 725.931,-1400 719.931,-1400 719.931,-1400 52,-1400 52,-1400 46,-1400 40,-1394 40,-1388 40,-1388 40,-830 40,-830 40,-824 46,-818 52,-818"/>
<text text-anchor="middle" x="385.965" y="-1387.2" font-family="Times New Roman,serif" font-size="11.00" fill="gray">translation</text>
</g>
<g id="clust8" class="cluster"><title>cluster_\NovemBit\i18n\component\translation\method</title>
<path fill="none" stroke="gray" d="M266.839,-1192C266.839,-1192 711.931,-1192 711.931,-1192 717.931,-1192 723.931,-1198 723.931,-1204 723.931,-1204 723.931,-1360 723.931,-1360 723.931,-1366 717.931,-1372 711.931,-1372 711.931,-1372 266.839,-1372 266.839,-1372 260.839,-1372 254.839,-1366 254.839,-1360 254.839,-1360 254.839,-1204 254.839,-1204 254.839,-1198 260.839,-1192 266.839,-1192"/>
<text text-anchor="middle" x="489.385" y="-1359.2" font-family="Times New Roman,serif" font-size="11.00" fill="gray">method</text>
</g>
<g id="clust9" class="cluster"><title>cluster_\NovemBit\i18n\component\translation\method\interfaces</title>
<path fill="none" stroke="gray" d="M274.839,-1223C274.839,-1223 323.839,-1223 323.839,-1223 329.839,-1223 335.839,-1229 335.839,-1235 335.839,-1235 335.839,-1283 335.839,-1283 335.839,-1289 329.839,-1295 323.839,-1295 323.839,-1295 274.839,-1295 274.839,-1295 268.839,-1295 262.839,-1289 262.839,-1283 262.839,-1283 262.839,-1235 262.839,-1235 262.839,-1229 268.839,-1223 274.839,-1223"/>
<text text-anchor="middle" x="299.339" y="-1282.2" font-family="Times New Roman,serif" font-size="11.00" fill="gray">interfaces</text>
</g>
<g id="clust10" class="cluster"><title>cluster_\NovemBit\i18n\component\translation\interfaces</title>
<path fill="none" stroke="gray" d="M60,-1054C60,-1054 136,-1054 136,-1054 142,-1054 148,-1060 148,-1066 148,-1066 148,-1114 148,-1114 148,-1120 142,-1126 136,-1126 136,-1126 60,-1126 60,-1126 54,-1126 48,-1120 48,-1114 48,-1114 48,-1066 48,-1066 48,-1060 54,-1054 60,-1054"/>
<text text-anchor="middle" x="98" y="-1113.2" font-family="Times New Roman,serif" font-size="11.00" fill="gray">interfaces</text>
</g>
<g id="clust6" class="cluster"><title>cluster_\NovemBit\i18n\component\translation\type</title>
<path fill="none" stroke="gray" d="M268.339,-826C268.339,-826 696.931,-826 696.931,-826 702.931,-826 708.931,-832 708.931,-838 708.931,-838 708.931,-1128 708.931,-1128 708.931,-1134 702.931,-1140 696.931,-1140 696.931,-1140 268.339,-1140 268.339,-1140 262.339,-1140 256.339,-1134 256.339,-1128 256.339,-1128 256.339,-838 256.339,-838 256.339,-832 262.339,-826 268.339,-826"/>
<text text-anchor="middle" x="482.635" y="-1127.2" font-family="Times New Roman,serif" font-size="11.00" fill="gray">type</text>
</g>
<g id="clust7" class="cluster"><title>cluster_\NovemBit\i18n\component\translation\type\interfaces</title>
<path fill="none" stroke="gray" d="M276.339,-834C276.339,-834 530.431,-834 530.431,-834 536.431,-834 542.431,-840 542.431,-846 542.431,-846 542.431,-1056 542.431,-1056 542.431,-1062 536.431,-1068 530.431,-1068 530.431,-1068 276.339,-1068 276.339,-1068 270.339,-1068 264.339,-1062 264.339,-1056 264.339,-1056 264.339,-846 264.339,-846 264.339,-840 270.339,-834 276.339,-834"/>
<text text-anchor="middle" x="403.385" y="-1055.2" font-family="Times New Roman,serif" font-size="11.00" fill="gray">interfaces</text>
</g>
<!-- \\NovemBit\\i18n\\component\\translation\\type\\interfaces\\HTML -->
<g id="node1" class="node"><title>\\NovemBit\\i18n\\component\\translation\\type\\interfaces\\HTML</title>
<polygon fill="none" stroke="black" points="534.431,-1040 480.431,-1040 480.431,-1004 534.431,-1004 534.431,-1040"/>
<text text-anchor="middle" x="507.431" y="-1019.2" font-family="Courier,monospace" font-size="11.00">HTML</text>
</g>
<!-- \\NovemBit\\i18n\\component\\translation\\type\\interfaces\\Type -->
<g id="node4" class="node"><title>\\NovemBit\\i18n\\component\\translation\\type\\interfaces\\Type</title>
<polygon fill="none" stroke="black" points="326.339,-1013 272.339,-1013 272.339,-977 326.339,-977 326.339,-1013"/>
<text text-anchor="middle" x="299.339" y="-992.2" font-family="Courier,monospace" font-size="11.00">Type</text>
</g>
<!-- \\NovemBit\\i18n\\component\\translation\\type\\interfaces\\HTML&#45;&gt;\\NovemBit\\i18n\\component\\translation\\type\\interfaces\\Type -->
<g id="edge26" class="edge"><title>\\NovemBit\\i18n\\component\\translation\\type\\interfaces\\HTML&#45;&gt;\\NovemBit\\i18n\\component\\translation\\type\\interfaces\\Type</title>
<path fill="none" stroke="black" d="M480.329,-1018.58C443.96,-1013.82 377.883,-1005.16 336.705,-999.764"/>
<polygon fill="none" stroke="black" points="336.923,-996.263 326.553,-998.434 336.014,-1003.2 336.923,-996.263"/>
</g>
<!-- \\NovemBit\\i18n\\component\\translation\\type\\interfaces\\JSON -->
<g id="node2" class="node"><title>\\NovemBit\\i18n\\component\\translation\\type\\interfaces\\JSON</title>
<polygon fill="none" stroke="black" points="534.431,-986 480.431,-986 480.431,-950 534.431,-950 534.431,-986"/>
<text text-anchor="middle" x="507.431" y="-965.2" font-family="Courier,monospace" font-size="11.00">JSON</text>
</g>
<!-- \\NovemBit\\i18n\\component\\translation\\type\\interfaces\\JSON&#45;&gt;\\NovemBit\\i18n\\component\\translation\\type\\interfaces\\Type -->
<g id="edge27" class="edge"><title>\\NovemBit\\i18n\\component\\translation\\type\\interfaces\\JSON&#45;&gt;\\NovemBit\\i18n\\component\\translation\\type\\interfaces\\Type</title>
<path fill="none" stroke="black" d="M480.329,-971.42C443.96,-976.184 377.883,-984.841 336.705,-990.236"/>
<polygon fill="none" stroke="black" points="336.014,-986.796 326.553,-991.566 336.923,-993.737 336.014,-986.796"/>
</g>
<!-- \\NovemBit\\i18n\\component\\translation\\type\\interfaces\\Text -->
<g id="node3" class="node"><title>\\NovemBit\\i18n\\component\\translation\\type\\interfaces\\Text</title>
<polygon fill="none" stroke="black" points="534.431,-932 480.431,-932 480.431,-896 534.431,-896 534.431,-932"/>
<text text-anchor="middle" x="507.431" y="-911.2" font-family="Courier,monospace" font-size="11.00">Text</text>
</g>
<!-- \\NovemBit\\i18n\\component\\translation\\type\\interfaces\\Text&#45;&gt;\\NovemBit\\i18n\\component\\translation\\type\\interfaces\\Type -->
<g id="edge28" class="edge"><title>\\NovemBit\\i18n\\component\\translation\\type\\interfaces\\Text&#45;&gt;\\NovemBit\\i18n\\component\\translation\\type\\interfaces\\Type</title>
<path fill="none" stroke="black" d="M480.183,-926.559C470.783,-931.082 460.119,-936.243 450.431,-941 421.885,-955.017 416.228,-961.889 386.431,-973 370.305,-979.013 351.884,-983.963 336.231,-987.635"/>
<polygon fill="none" stroke="black" points="335.376,-984.24 326.396,-989.862 336.922,-991.067 335.376,-984.24"/>
</g>
<!-- \\NovemBit\\i18n\\component\\translation\\interfaces\\Translator -->
<g id="node16" class="node"><title>\\NovemBit\\i18n\\component\\translation\\interfaces\\Translator</title>
<polygon fill="none" stroke="black" points="140,-1098 56,-1098 56,-1062 140,-1062 140,-1098"/>
<text text-anchor="middle" x="98" y="-1077.2" font-family="Courier,monospace" font-size="11.00">Translator</text>
</g>
<!-- \\NovemBit\\i18n\\component\\translation\\type\\interfaces\\Type&#45;&gt;\\NovemBit\\i18n\\component\\translation\\interfaces\\Translator -->
<g id="edge29" class="edge"><title>\\NovemBit\\i18n\\component\\translation\\type\\interfaces\\Type&#45;&gt;\\NovemBit\\i18n\\component\\translation\\interfaces\\Translator</title>
<path fill="none" stroke="black" d="M272.172,-999.854C254.818,-1003.51 231.738,-1009.24 212.246,-1017 185.424,-1027.68 157.038,-1043.48 135.395,-1056.59"/>
<polygon fill="none" stroke="black" points="133.545,-1053.62 126.854,-1061.83 137.208,-1059.58 133.545,-1053.62"/>
</g>
<!-- \\NovemBit\\i18n\\component\\translation\\type\\interfaces\\URL -->
<g id="node5" class="node"><title>\\NovemBit\\i18n\\component\\translation\\type\\interfaces\\URL</title>
<polygon fill="none" stroke="black" points="534.431,-878 480.431,-878 480.431,-842 534.431,-842 534.431,-878"/>
<text text-anchor="middle" x="507.431" y="-857.2" font-family="Courier,monospace" font-size="11.00">URL</text>
</g>
<!-- \\NovemBit\\i18n\\component\\translation\\type\\interfaces\\URL&#45;&gt;\\NovemBit\\i18n\\component\\translation\\type\\interfaces\\Type -->
<g id="edge30" class="edge"><title>\\NovemBit\\i18n\\component\\translation\\type\\interfaces\\URL&#45;&gt;\\NovemBit\\i18n\\component\\translation\\type\\interfaces\\Type</title>
<path fill="none" stroke="black" d="M480.37,-869.444C470.371,-873.835 459.253,-879.716 450.431,-887 413.689,-917.333 426.005,-946.468 386.431,-973 371.82,-982.795 353.146,-988.229 336.926,-991.244"/>
<polygon fill="none" stroke="black" points="336.003,-987.848 326.689,-992.897 337.119,-994.758 336.003,-987.848"/>
</g>
<!-- \\NovemBit\\i18n\\component\\translation\\type\\Text -->
<g id="node6" class="node"><title>\\NovemBit\\i18n\\component\\translation\\type\\Text</title>
<polygon fill="none" stroke="black" points="700.931,-1112 646.931,-1112 646.931,-1076 700.931,-1076 700.931,-1112"/>
<text text-anchor="middle" x="673.931" y="-1091.2" font-family="Courier,monospace" font-size="11.00">Text</text>
</g>
<!-- \\NovemBit\\i18n\\component\\translation\\type\\Type -->
<g id="node9" class="node"><title>\\NovemBit\\i18n\\component\\translation\\type\\Type</title>
<polygon fill="none" stroke="black" points="549.431,-1112 465.431,-1112 465.431,-1076 549.431,-1076 549.431,-1112"/>
<text text-anchor="start" x="473.431" y="-1097.2" font-family="Courier,monospace" font-size="11.00">«abstract»</text>
<text text-anchor="start" x="493.431" y="-1085.2" font-family="Courier,monospace" font-size="11.00">Type</text>
</g>
<!-- \\NovemBit\\i18n\\component\\translation\\type\\Text&#45;&gt;\\NovemBit\\i18n\\component\\translation\\type\\Type -->
<g id="edge3" class="edge"><title>\\NovemBit\\i18n\\component\\translation\\type\\Text&#45;&gt;\\NovemBit\\i18n\\component\\translation\\type\\Type</title>
<path fill="none" stroke="black" d="M646.865,-1094C623.547,-1094 588.688,-1094 559.785,-1094"/>
<polygon fill="none" stroke="black" points="559.438,-1090.5 549.438,-1094 559.438,-1097.5 559.438,-1090.5"/>
</g>
<!-- \\NovemBit\\i18n\\component\\translation\\type\\HTML -->
<g id="node7" class="node"><title>\\NovemBit\\i18n\\component\\translation\\type\\HTML</title>
<polygon fill="none" stroke="black" points="700.931,-1058 646.931,-1058 646.931,-1022 700.931,-1022 700.931,-1058"/>
<text text-anchor="middle" x="673.931" y="-1037.2" font-family="Courier,monospace" font-size="11.00">HTML</text>
</g>
<!-- \\NovemBit\\i18n\\component\\translation\\type\\HTML&#45;&gt;\\NovemBit\\i18n\\component\\translation\\type\\Type -->
<g id="edge10" class="edge"><title>\\NovemBit\\i18n\\component\\translation\\type\\HTML&#45;&gt;\\NovemBit\\i18n\\component\\translation\\type\\Type</title>
<path fill="none" stroke="black" d="M646.865,-1048.56C623.342,-1056.28 588.076,-1067.86 559.026,-1077.39"/>
<polygon fill="none" stroke="black" points="557.848,-1074.09 549.438,-1080.54 560.031,-1080.75 557.848,-1074.09"/>
</g>
<!-- \\NovemBit\\i18n\\component\\translation\\type\\JSON -->
<g id="node8" class="node"><title>\\NovemBit\\i18n\\component\\translation\\type\\JSON</title>
<polygon fill="none" stroke="black" points="700.931,-1004 646.931,-1004 646.931,-968 700.931,-968 700.931,-1004"/>
<text text-anchor="middle" x="673.931" y="-983.2" font-family="Courier,monospace" font-size="11.00">JSON</text>
</g>
<!-- \\NovemBit\\i18n\\component\\translation\\type\\JSON&#45;&gt;\\NovemBit\\i18n\\component\\translation\\type\\Type -->
<g id="edge14" class="edge"><title>\\NovemBit\\i18n\\component\\translation\\type\\JSON&#45;&gt;\\NovemBit\\i18n\\component\\translation\\type\\Type</title>
<path fill="none" stroke="black" d="M646.556,-1000.97C640.471,-1004.7 634.119,-1008.84 628.431,-1013 596.278,-1036.53 594.741,-1050.92 560.931,-1072 560.142,-1072.49 559.34,-1072.98 558.528,-1073.46"/>
<polygon fill="none" stroke="black" points="556.639,-1070.5 549.496,-1078.32 559.959,-1076.66 556.639,-1070.5"/>
</g>
<!-- \\NovemBit\\i18n\\component\\translation\\type\\Type&#45;&gt;\\NovemBit\\i18n\\component\\translation\\type\\interfaces\\Type -->
<g id="edge18" class="edge"><title>\\NovemBit\\i18n\\component\\translation\\type\\Type&#45;&gt;\\NovemBit\\i18n\\component\\translation\\type\\interfaces\\Type</title>
<path fill="none" stroke="black" stroke-dasharray="1,5" d="M465.288,-1079.69C460.157,-1077.37 455.084,-1074.8 450.431,-1072 418.304,-1052.65 419.697,-1034.32 386.431,-1017 371.053,-1008.99 352.586,-1003.78 336.704,-1000.44"/>
<polygon fill="none" stroke="black" points="337.182,-996.971 326.7,-998.515 335.857,-1003.84 337.182,-996.971"/>
</g>
<!-- \\NovemBit\\i18n\\component\\translation\\Translator -->
<g id="node17" class="node"><title>\\NovemBit\\i18n\\component\\translation\\Translator</title>
<polygon fill="none" stroke="black" points="341.339,-1184 257.339,-1184 257.339,-1148 341.339,-1148 341.339,-1184"/>
<text text-anchor="start" x="265.339" y="-1169.2" font-family="Courier,monospace" font-size="11.00">«abstract»</text>
<text text-anchor="start" x="265.339" y="-1157.2" font-family="Courier,monospace" font-size="11.00">Translator</text>
</g>
<!-- \\NovemBit\\i18n\\component\\translation\\type\\Type&#45;&gt;\\NovemBit\\i18n\\component\\translation\\Translator -->
<g id="edge17" class="edge"><title>\\NovemBit\\i18n\\component\\translation\\type\\Type&#45;&gt;\\NovemBit\\i18n\\component\\translation\\Translator</title>
<path fill="none" stroke="black" d="M465.22,-1108.4C432.364,-1119.88 386.2,-1136 351.072,-1148.28"/>
<polygon fill="none" stroke="black" points="349.764,-1145.03 341.478,-1151.63 352.072,-1151.63 349.764,-1145.03"/>
</g>
<!-- \\NovemBit\\i18n\\component\\translation\\type\\URL -->
<g id="node10" class="node"><title>\\NovemBit\\i18n\\component\\translation\\type\\URL</title>
<polygon fill="none" stroke="black" points="700.931,-950 646.931,-950 646.931,-914 700.931,-914 700.931,-950"/>
<text text-anchor="middle" x="673.931" y="-929.2" font-family="Courier,monospace" font-size="11.00">URL</text>
</g>
<!-- \\NovemBit\\i18n\\component\\translation\\type\\URL&#45;&gt;\\NovemBit\\i18n\\component\\translation\\type\\Type -->
<g id="edge20" class="edge"><title>\\NovemBit\\i18n\\component\\translation\\type\\URL&#45;&gt;\\NovemBit\\i18n\\component\\translation\\type\\Type</title>
<path fill="none" stroke="black" d="M646.904,-944.893C640.41,-948.856 633.78,-953.614 628.431,-959 587.208,-1000.51 605.12,-1033.67 560.931,-1072 559.965,-1072.84 558.963,-1073.65 557.93,-1074.43"/>
<polygon fill="none" stroke="black" points="556.003,-1071.51 549.523,-1079.89 559.815,-1077.38 556.003,-1071.51"/>
</g>
<!-- \\NovemBit\\i18n\\component\\translation\\method\\interfaces\\Method -->
<g id="node11" class="node"><title>\\NovemBit\\i18n\\component\\translation\\method\\interfaces\\Method</title>
<polygon fill="none" stroke="black" points="327.839,-1267 270.839,-1267 270.839,-1231 327.839,-1231 327.839,-1267"/>
<text text-anchor="middle" x="299.339" y="-1246.2" font-family="Courier,monospace" font-size="11.00">Method</text>
</g>
<!-- \\NovemBit\\i18n\\component\\translation\\method\\Google -->
<g id="node12" class="node"><title>\\NovemBit\\i18n\\component\\translation\\method\\Google</title>
<polygon fill="none" stroke="black" points="702.431,-1344 645.431,-1344 645.431,-1308 702.431,-1308 702.431,-1344"/>
<text text-anchor="middle" x="673.931" y="-1323.2" font-family="Courier,monospace" font-size="11.00">Google</text>
</g>
<!-- \\NovemBit\\i18n\\component\\translation\\method\\Method -->
<g id="node13" class="node"><title>\\NovemBit\\i18n\\component\\translation\\method\\Method</title>
<polygon fill="none" stroke="black" points="549.431,-1267 465.431,-1267 465.431,-1231 549.431,-1231 549.431,-1267"/>
<text text-anchor="start" x="473.431" y="-1252.2" font-family="Courier,monospace" font-size="11.00">«abstract»</text>
<text text-anchor="start" x="486.931" y="-1240.2" font-family="Courier,monospace" font-size="11.00">Method</text>
</g>
<!-- \\NovemBit\\i18n\\component\\translation\\method\\Google&#45;&gt;\\NovemBit\\i18n\\component\\translation\\method\\Method -->
<g id="edge4" class="edge"><title>\\NovemBit\\i18n\\component\\translation\\method\\Google&#45;&gt;\\NovemBit\\i18n\\component\\translation\\method\\Method</title>
<path fill="none" stroke="black" d="M645.397,-1313.11C621.133,-1301.75 585.242,-1284.95 556.287,-1271.4"/>
<polygon fill="none" stroke="black" points="557.694,-1268.19 547.153,-1267.13 554.726,-1274.53 557.694,-1268.19"/>
</g>
<!-- \\NovemBit\\i18n\\component\\translation\\method\\Method&#45;&gt;\\NovemBit\\i18n\\component\\translation\\method\\interfaces\\Method -->
<g id="edge6" class="edge"><title>\\NovemBit\\i18n\\component\\translation\\method\\Method&#45;&gt;\\NovemBit\\i18n\\component\\translation\\method\\interfaces\\Method</title>
<path fill="none" stroke="black" stroke-dasharray="1,5" d="M465.22,-1249C428.121,-1249 374.054,-1249 338.068,-1249"/>
<polygon fill="none" stroke="black" points="337.973,-1245.5 327.973,-1249 337.973,-1252.5 337.973,-1245.5"/>
</g>
<!-- \\NovemBit\\i18n\\component\\translation\\method\\Method&#45;&gt;\\NovemBit\\i18n\\component\\translation\\Translator -->
<g id="edge5" class="edge"><title>\\NovemBit\\i18n\\component\\translation\\method\\Method&#45;&gt;\\NovemBit\\i18n\\component\\translation\\Translator</title>
<path fill="none" stroke="black" d="M465.22,-1232.4C432.364,-1219.17 386.2,-1200.58 351.072,-1186.43"/>
<polygon fill="none" stroke="black" points="352.061,-1183.06 341.478,-1182.57 349.446,-1189.55 352.061,-1183.06"/>
</g>
<!-- \\NovemBit\\i18n\\component\\translation\\method\\Dummy -->
<g id="node14" class="node"><title>\\NovemBit\\i18n\\component\\translation\\method\\Dummy</title>
<polygon fill="none" stroke="black" points="700.931,-1290 646.931,-1290 646.931,-1254 700.931,-1254 700.931,-1290"/>
<text text-anchor="middle" x="673.931" y="-1269.2" font-family="Courier,monospace" font-size="11.00">Dummy</text>
</g>
<!-- \\NovemBit\\i18n\\component\\translation\\method\\Dummy&#45;&gt;\\NovemBit\\i18n\\component\\translation\\method\\Method -->
<g id="edge9" class="edge"><title>\\NovemBit\\i18n\\component\\translation\\method\\Dummy&#45;&gt;\\NovemBit\\i18n\\component\\translation\\method\\Method</title>
<path fill="none" stroke="black" d="M646.865,-1268.36C623.445,-1265.08 588.382,-1260.18 559.405,-1256.13"/>
<polygon fill="none" stroke="black" points="559.827,-1252.65 549.438,-1254.73 558.857,-1259.58 559.827,-1252.65"/>
</g>
<!-- \\NovemBit\\i18n\\component\\translation\\method\\RestMethod -->
<g id="node15" class="node"><title>\\NovemBit\\i18n\\component\\translation\\method\\RestMethod</title>
<polygon fill="none" stroke="black" points="715.931,-1236 631.931,-1236 631.931,-1200 715.931,-1200 715.931,-1236"/>
<text text-anchor="middle" x="673.931" y="-1215.2" font-family="Courier,monospace" font-size="11.00">RestMethod</text>
</g>
<!-- \\NovemBit\\i18n\\component\\translation\\method\\RestMethod&#45;&gt;\\NovemBit\\i18n\\component\\translation\\method\\Method -->
<g id="edge22" class="edge"><title>\\NovemBit\\i18n\\component\\translation\\method\\RestMethod&#45;&gt;\\NovemBit\\i18n\\component\\translation\\method\\Method</title>
<path fill="none" stroke="black" d="M631.845,-1225.74C609.96,-1229.87 582.837,-1234.98 559.596,-1239.36"/>
<polygon fill="none" stroke="black" points="558.742,-1235.96 549.563,-1241.25 560.038,-1242.84 558.742,-1235.96"/>
</g>
<!-- \\NovemBit\\i18n\\component\\translation\\Translator&#45;&gt;\\NovemBit\\i18n\\component\\translation\\interfaces\\Translator -->
<g id="edge25" class="edge"><title>\\NovemBit\\i18n\\component\\translation\\Translator&#45;&gt;\\NovemBit\\i18n\\component\\translation\\interfaces\\Translator</title>
<path fill="none" stroke="black" stroke-dasharray="1,5" d="M257.035,-1148.18C225.898,-1134.75 183.025,-1116.25 149.79,-1101.91"/>
<polygon fill="none" stroke="black" points="150.819,-1098.54 140.25,-1097.8 148.046,-1104.97 150.819,-1098.54"/>
</g>
<!-- \\NovemBit\\i18n\\system\\Component -->
<g id="node33" class="node"><title>\\NovemBit\\i18n\\system\\Component</title>
<polygon fill="none" stroke="black" points="140,-524 56,-524 56,-488 140,-488 140,-524"/>
<text text-anchor="start" x="64" y="-509.2" font-family="Courier,monospace" font-size="11.00">«abstract»</text>
<text text-anchor="start" x="67.5" y="-497.2" font-family="Courier,monospace" font-size="11.00">Component</text>
</g>
<!-- \\NovemBit\\i18n\\component\\translation\\Translator&#45;&gt;\\NovemBit\\i18n\\system\\Component -->
<g id="edge24" class="edge"><title>\\NovemBit\\i18n\\component\\translation\\Translator&#45;&gt;\\NovemBit\\i18n\\system\\Component</title>
<path fill="none" stroke="black" d="M275.957,-1147.93C256.053,-1130.6 227.765,-1102.59 212.246,-1072 116.373,-883.025 101.617,-620.069 99.3848,-534.281"/>
<polygon fill="none" stroke="black" points="102.884,-534.185 99.1617,-524.266 95.8854,-534.341 102.884,-534.185"/>
</g>
<!-- \\NovemBit\\i18n\\component\\interfaces\\Languages -->
<g id="node18" class="node"><title>\\NovemBit\\i18n\\component\\interfaces\\Languages</title>
<polygon fill="none" stroke="black" points="545.931,-728 468.931,-728 468.931,-692 545.931,-692 545.931,-728"/>
<text text-anchor="middle" x="507.431" y="-707.2" font-family="Courier,monospace" font-size="11.00">Languages</text>
</g>
<!-- \\NovemBit\\i18n\\component\\interfaces\\Request -->
<g id="node19" class="node"><title>\\NovemBit\\i18n\\component\\interfaces\\Request</title>
<polygon fill="none" stroke="black" points="539.431,-782 475.431,-782 475.431,-746 539.431,-746 539.431,-782"/>
<text text-anchor="middle" x="507.431" y="-761.2" font-family="Courier,monospace" font-size="11.00">Request</text>
</g>
<!-- \\NovemBit\\i18n\\component\\interfaces\\Translation -->
<g id="node20" class="node"><title>\\NovemBit\\i18n\\component\\interfaces\\Translation</title>
<polygon fill="none" stroke="black" points="552.931,-674 461.931,-674 461.931,-638 552.931,-638 552.931,-674"/>
<text text-anchor="middle" x="507.431" y="-653.2" font-family="Courier,monospace" font-size="11.00">Translation</text>
</g>
<!-- \\NovemBit\\i18n\\component\\Rest -->
<g id="node21" class="node"><title>\\NovemBit\\i18n\\component\\Rest</title>
<polygon fill="none" stroke="black" points="700.931,-648 646.931,-648 646.931,-612 700.931,-612 700.931,-648"/>
<text text-anchor="middle" x="673.931" y="-627.2" font-family="Courier,monospace" font-size="11.00">Rest</text>
</g>
<!-- \\NovemBit\\i18n\\component\\Rest&#45;&gt;\\NovemBit\\i18n\\system\\Component -->
<g id="edge1" class="edge"><title>\\NovemBit\\i18n\\component\\Rest&#45;&gt;\\NovemBit\\i18n\\system\\Component</title>
<path fill="none" stroke="black" d="M646.829,-628.986C550.089,-625.213 217.301,-612.096 212.246,-610 172.814,-593.647 138.454,-557.14 118.218,-532.041"/>
<polygon fill="none" stroke="black" points="120.84,-529.713 111.909,-524.012 115.335,-534.037 120.84,-529.713"/>
</g>
<!-- \\NovemBit\\i18n\\component\\Translation -->
<g id="node22" class="node"><title>\\NovemBit\\i18n\\component\\Translation</title>
<polygon fill="none" stroke="black" points="719.431,-702 628.431,-702 628.431,-666 719.431,-666 719.431,-702"/>
<text text-anchor="middle" x="673.931" y="-681.2" font-family="Courier,monospace" font-size="11.00">Translation</text>
</g>
<!-- \\NovemBit\\i18n\\component\\Translation&#45;&gt;\\NovemBit\\i18n\\component\\interfaces\\Translation -->
<g id="edge8" class="edge"><title>\\NovemBit\\i18n\\component\\Translation&#45;&gt;\\NovemBit\\i18n\\component\\interfaces\\Translation</title>
<path fill="none" stroke="black" stroke-dasharray="1,5" d="M628.415,-676.423C608.208,-672.983 584.121,-668.884 562.85,-665.263"/>
<polygon fill="none" stroke="black" points="563.428,-661.811 552.982,-663.583 562.253,-668.712 563.428,-661.811"/>
</g>
<!-- \\NovemBit\\i18n\\component\\Translation&#45;&gt;\\NovemBit\\i18n\\system\\Component -->
<g id="edge7" class="edge"><title>\\NovemBit\\i18n\\component\\Translation&#45;&gt;\\NovemBit\\i18n\\system\\Component</title>
<path fill="none" stroke="black" d="M298.339,-541C260.591,-532.481 250.38,-534.58 212.246,-528 191.826,-524.476 169.413,-520.207 149.955,-516.371"/>
<polygon fill="none" stroke="black" points="150.564,-512.924 140.074,-514.411 149.202,-519.79 150.564,-512.924"/>
<path fill="none" stroke="black" d="M640.594,-665.863C636.375,-663.073 632.21,-660.087 628.431,-657 594.209,-629.045 600.531,-603.607 560.931,-584 539.926,-573.6 529.78,-588.675 508.431,-579"/>
<path fill="none" stroke="black" d="M506.431,-579C456.049,-556.169 441.009,-554.987 386.431,-546 348.612,-539.773 337.726,-549.438 300.339,-541"/>
</g>
<!-- \\NovemBit\\i18n\\component\\Languages -->
<g id="node23" class="node"><title>\\NovemBit\\i18n\\component\\Languages</title>
<polygon fill="none" stroke="black" points="712.431,-756 635.431,-756 635.431,-720 712.431,-720 712.431,-756"/>
<text text-anchor="middle" x="673.931" y="-735.2" font-family="Courier,monospace" font-size="11.00">Languages</text>
</g>
<!-- \\NovemBit\\i18n\\component\\Languages&#45;&gt;\\NovemBit\\i18n\\component\\interfaces\\Languages -->
<g id="edge13" class="edge"><title>\\NovemBit\\i18n\\component\\Languages&#45;&gt;\\NovemBit\\i18n\\component\\interfaces\\Languages</title>
<path fill="none" stroke="black" stroke-dasharray="1,5" d="M635.191,-731.576C611.681,-727.575 581.228,-722.391 556.063,-718.108"/>
<polygon fill="none" stroke="black" points="556.44,-714.622 545.995,-716.394 555.266,-721.522 556.44,-714.622"/>
</g>
<!-- \\NovemBit\\i18n\\component\\Languages&#45;&gt;\\NovemBit\\i18n\\system\\Component -->
<g id="edge12" class="edge"><title>\\NovemBit\\i18n\\component\\Languages&#45;&gt;\\NovemBit\\i18n\\system\\Component</title>
<path fill="none" stroke="black" d="M638.437,-719.736C634.836,-717.073 631.41,-714.153 628.431,-711 584.534,-664.535 614.095,-619.49 560.931,-584 541.436,-570.987 529.78,-588.675 508.431,-579"/>
</g>
<!-- \\NovemBit\\i18n\\component\\Request -->
<g id="node24" class="node"><title>\\NovemBit\\i18n\\component\\Request</title>
<polygon fill="none" stroke="black" points="705.931,-810 641.931,-810 641.931,-774 705.931,-774 705.931,-810"/>
<text text-anchor="middle" x="673.931" y="-789.2" font-family="Courier,monospace" font-size="11.00">Request</text>
</g>
<!-- \\NovemBit\\i18n\\component\\Request&#45;&gt;\\NovemBit\\i18n\\component\\interfaces\\Request -->
<g id="edge16" class="edge"><title>\\NovemBit\\i18n\\component\\Request&#45;&gt;\\NovemBit\\i18n\\component\\interfaces\\Request</title>
<path fill="none" stroke="black" stroke-dasharray="1,5" d="M641.602,-786.668C615.533,-782.23 578.212,-775.878 549.708,-771.026"/>
<polygon fill="none" stroke="black" points="550.088,-767.54 539.643,-769.313 548.913,-774.441 550.088,-767.54"/>
</g>
<!-- \\NovemBit\\i18n\\component\\Request&#45;&gt;\\NovemBit\\i18n\\system\\Component -->
<g id="edge15" class="edge"><title>\\NovemBit\\i18n\\component\\Request&#45;&gt;\\NovemBit\\i18n\\system\\Component</title>
<path fill="none" stroke="black" d="M641.497,-776.12C636.759,-772.862 632.203,-769.142 628.431,-765 582.186,-714.227 611.601,-672.357 560.931,-626 522.167,-590.536 497.75,-606.83 450.431,-584 420.637,-569.625 418.064,-555.678 386.431,-546 349.78,-534.787 337.726,-549.438 300.339,-541"/>
</g>
<!-- \\NovemBit\\i18n\\models\\ActiveRecord -->
<g id="node25" class="node"><title>\\NovemBit\\i18n\\models\\ActiveRecord</title>
<polygon fill="none" stroke="black" points="556.431,-112 458.431,-112 458.431,-76 556.431,-76 556.431,-112"/>
<text text-anchor="middle" x="507.431" y="-91.2" font-family="Courier,monospace" font-size="11.00">ActiveRecord</text>
</g>
<!-- \\yii\\db\\ActiveRecord -->
<g id="node35" class="node"><title>\\yii\\db\\ActiveRecord</title>
<ellipse fill="none" stroke="black" cx="299.339" cy="-18" rx="87.1846" ry="18"/>
<text text-anchor="middle" x="299.339" y="-14.3" font-family="Times New Roman,serif" font-size="14.00" fill="gray">\yii\db\ActiveRecord</text>
</g>
<!-- \\NovemBit\\i18n\\models\\ActiveRecord&#45;&gt;\\yii\\db\\ActiveRecord -->
<g id="edge2" class="edge"><title>\\NovemBit\\i18n\\models\\ActiveRecord&#45;&gt;\\yii\\db\\ActiveRecord</title>
<path fill="none" stroke="black" d="M458.371,-76.2773C426.681,-64.5908 385.177,-49.2857 352.656,-37.2929"/>
<polygon fill="none" stroke="black" points="353.465,-33.8611 342.872,-33.685 351.043,-40.4288 353.465,-33.8611"/>
</g>
<!-- \\NovemBit\\i18n\\models\\Translation -->
<g id="node26" class="node"><title>\\NovemBit\\i18n\\models\\Translation</title>
<polygon fill="none" stroke="black" points="719.431,-112 628.431,-112 628.431,-76 719.431,-76 719.431,-112"/>
<text text-anchor="middle" x="673.931" y="-91.2" font-family="Courier,monospace" font-size="11.00">Translation</text>
</g>
<!-- \\NovemBit\\i18n\\models\\Translation&#45;&gt;\\NovemBit\\i18n\\models\\ActiveRecord -->
<g id="edge21" class="edge"><title>\\NovemBit\\i18n\\models\\Translation&#45;&gt;\\NovemBit\\i18n\\models\\ActiveRecord</title>
<path fill="none" stroke="black" d="M628.415,-94C609.367,-94 586.873,-94 566.539,-94"/>
<polygon fill="none" stroke="black" points="566.445,-90.5001 556.445,-94 566.445,-97.5001 566.445,-90.5001"/>
</g>
<!-- \\NovemBit\\i18n\\system\\helpers\\URL -->
<g id="node27" class="node"><title>\\NovemBit\\i18n\\system\\helpers\\URL</title>
<polygon fill="none" stroke="black" points="326.339,-496 272.339,-496 272.339,-460 326.339,-460 326.339,-496"/>
<text text-anchor="middle" x="299.339" y="-475.2" font-family="Courier,monospace" font-size="11.00">URL</text>
</g>
<!-- \\NovemBit\\i18n\\system\\helpers\\DataType -->
<g id="node28" class="node"><title>\\NovemBit\\i18n\\system\\helpers\\DataType</title>
<polygon fill="none" stroke="black" points="334.839,-442 263.839,-442 263.839,-406 334.839,-406 334.839,-442"/>
<text text-anchor="middle" x="299.339" y="-421.2" font-family="Courier,monospace" font-size="11.00">DataType</text>
</g>
<!-- \\NovemBit\\i18n\\system\\exception\\Exception -->
<g id="node29" class="node"><title>\\NovemBit\\i18n\\system\\exception\\Exception</title>
<polygon fill="none" stroke="black" points="337.839,-362 260.839,-362 260.839,-326 337.839,-326 337.839,-362"/>
<text text-anchor="middle" x="299.339" y="-341.2" font-family="Courier,monospace" font-size="11.00">Exception</text>
</g>
<!-- \\Exception -->
<g id="node36" class="node"><title>\\Exception</title>
<ellipse fill="none" stroke="black" cx="98" cy="-18" rx="42.4939" ry="18"/>
<text text-anchor="middle" x="98" y="-14.3" font-family="Times New Roman,serif" font-size="14.00" fill="gray">xception</text>
</g>
<!-- \\NovemBit\\i18n\\system\\exception\\Exception&#45;&gt;\\Exception -->
<g id="edge19" class="edge"><title>\\NovemBit\\i18n\\system\\exception\\Exception&#45;&gt;\\Exception</title>
<path fill="none" stroke="black" d="M260.742,-326.342C243.716,-316.619 224.666,-303.04 212.246,-286 151.747,-202.992 201.63,-151.603 148,-64 142.721,-55.3764 135.401,-47.3202 128.027,-40.4354"/>
<polygon fill="none" stroke="black" points="129.916,-37.4353 120.098,-33.4529 125.29,-42.6887 129.916,-37.4353"/>
</g>
<!-- \\NovemBit\\i18n\\system\\parsers\\html\\Rule -->
<g id="node30" class="node"><title>\\NovemBit\\i18n\\system\\parsers\\html\\Rule</title>
<polygon fill="none" stroke="black" points="326.339,-254 272.339,-254 272.339,-218 326.339,-218 326.339,-254"/>
<text text-anchor="middle" x="299.339" y="-233.2" font-family="Courier,monospace" font-size="11.00">Rule</text>
</g>
<!-- \\NovemBit\\i18n\\system\\parsers\\HTML -->
<g id="node31" class="node"><title>\\NovemBit\\i18n\\system\\parsers\\HTML</title>
<polygon fill="none" stroke="black" points="326.339,-200 272.339,-200 272.339,-164 326.339,-164 326.339,-200"/>
<text text-anchor="middle" x="299.339" y="-179.2" font-family="Courier,monospace" font-size="11.00">HTML</text>
</g>
<!-- \\NovemBit\\i18n\\system\\component\\DB -->
<g id="node32" class="node"><title>\\NovemBit\\i18n\\system\\component\\DB</title>
<polygon fill="none" stroke="black" points="326.339,-120 272.339,-120 272.339,-84 326.339,-84 326.339,-120"/>
<text text-anchor="middle" x="299.339" y="-99.2" font-family="Courier,monospace" font-size="11.00">DB</text>
</g>
<!-- \\NovemBit\\i18n\\system\\component\\DB&#45;&gt;\\NovemBit\\i18n\\system\\Component -->
<g id="edge23" class="edge"><title>\\NovemBit\\i18n\\system\\component\\DB&#45;&gt;\\NovemBit\\i18n\\system\\Component</title>
<path fill="none" stroke="black" d="M272.276,-111.198C253.132,-119.206 227.841,-132.602 212.246,-152 131.223,-252.785 107.655,-412.717 101.239,-477.426"/>
<polygon fill="none" stroke="black" points="97.7277,-477.391 100.29,-487.671 104.698,-478.036 97.7277,-477.391"/>
</g>
<!-- \\NovemBit\\i18n\\Module -->
<g id="node34" class="node"><title>\\NovemBit\\i18n\\Module</title>
<polygon fill="none" stroke="black" points="327.839,-596 270.839,-596 270.839,-560 327.839,-560 327.839,-596"/>
<text text-anchor="middle" x="299.339" y="-575.2" font-family="Courier,monospace" font-size="11.00">Module</text>
</g>
<!-- \\NovemBit\\i18n\\Module&#45;&gt;\\NovemBit\\i18n\\system\\Component -->
<g id="edge11" class="edge"><title>\\NovemBit\\i18n\\Module&#45;&gt;\\NovemBit\\i18n\\system\\Component</title>
<path fill="none" stroke="black" d="M270.466,-572.111C253.442,-568.212 231.345,-562.606 212.246,-556 189.627,-548.177 165.257,-537.698 144.939,-528.355"/>
<polygon fill="none" stroke="black" points="146.157,-525.061 135.614,-524.016 143.204,-531.408 146.157,-525.061"/>
</g>
</g>
</svg>
