<?xml version="1.0" encoding="UTF-8" standalone="no"?>
<!DOCTYPE svg PUBLIC "-//W3C//DTD SVG 1.1//EN"
 "http://www.w3.org/Graphics/SVG/1.1/DTD/svg11.dtd">
<!-- Generated by graphviz version 2.38.0 (20140413.2041)
 -->
<!-- Title: G Pages: 1 -->
<svg width="787pt" height="1726pt"
 viewBox="0.00 0.00 786.68 1726.00" xmlns="http://www.w3.org/2000/svg" xmlns:xlink="http://www.w3.org/1999/xlink">
<g id="graph0" class="graph" transform="scale(1 1) rotate(0) translate(4 1722)">
<title>G</title>
<polygon fill="white" stroke="none" points="-4,4 -4,-1722 782.685,-1722 782.685,4 -4,4"/>
<g id="clust1" class="cluster"><title>cluster_Global</title>
<path fill="none" stroke="gray" d="M20,-44C20,-44 758.685,-44 758.685,-44 764.685,-44 770.685,-50 770.685,-56 770.685,-56 770.685,-1698 770.685,-1698 770.685,-1704 764.685,-1710 758.685,-1710 758.685,-1710 20,-1710 20,-1710 14,-1710 8,-1704 8,-1698 8,-1698 8,-56 8,-56 8,-50 14,-44 20,-44"/>
<text text-anchor="middle" x="389.342" y="-1697.2" font-family="Times New Roman,serif" font-size="11.00" fill="gray">Global</text>
</g>
<g id="clust2" class="cluster"><title>cluster_\NovemBit</title>
<path fill="none" stroke="gray" d="M28,-52C28,-52 750.685,-52 750.685,-52 756.685,-52 762.685,-58 762.685,-64 762.685,-64 762.685,-1670 762.685,-1670 762.685,-1676 756.685,-1682 750.685,-1682 750.685,-1682 28,-1682 28,-1682 22,-1682 16,-1676 16,-1670 16,-1670 16,-64 16,-64 16,-58 22,-52 28,-52"/>
<text text-anchor="middle" x="389.342" y="-1669.2" font-family="Times New Roman,serif" font-size="11.00" fill="gray">NovemBit</text>
</g>
<g id="clust3" class="cluster"><title>cluster_\NovemBit\i18n</title>
<path fill="none" stroke="gray" d="M36,-60C36,-60 742.685,-60 742.685,-60 748.685,-60 754.685,-66 754.685,-72 754.685,-72 754.685,-1642 754.685,-1642 754.685,-1648 748.685,-1654 742.685,-1654 742.685,-1654 36,-1654 36,-1654 30,-1654 24,-1648 24,-1642 24,-1642 24,-72 24,-72 24,-66 30,-60 36,-60"/>
<text text-anchor="middle" x="389.342" y="-1641.2" font-family="Times New Roman,serif" font-size="11.00" fill="gray">i18n</text>
</g>
<g id="clust12" class="cluster"><title>cluster_\NovemBit\i18n\component</title>
<path fill="none" stroke="gray" d="M44,-604C44,-604 734.685,-604 734.685,-604 740.685,-604 746.685,-610 746.685,-616 746.685,-616 746.685,-1614 746.685,-1614 746.685,-1620 740.685,-1626 734.685,-1626 734.685,-1626 44,-1626 44,-1626 38,-1626 32,-1620 32,-1614 32,-1614 32,-616 32,-616 32,-610 38,-604 44,-604"/>
<text text-anchor="middle" x="389.342" y="-1613.2" font-family="Times New Roman,serif" font-size="11.00" fill="gray">component</text>
</g>
<g id="clust13" class="cluster"><title>cluster_\NovemBit\i18n\component\languages</title>
<path fill="none" stroke="gray" d="M471.685,-1490C471.685,-1490 715.185,-1490 715.185,-1490 721.185,-1490 727.185,-1496 727.185,-1502 727.185,-1502 727.185,-1586 727.185,-1586 727.185,-1592 721.185,-1598 715.185,-1598 715.185,-1598 471.685,-1598 471.685,-1598 465.685,-1598 459.685,-1592 459.685,-1586 459.685,-1586 459.685,-1502 459.685,-1502 459.685,-1496 465.685,-1490 471.685,-1490"/>
<text text-anchor="middle" x="593.435" y="-1585.2" font-family="Times New Roman,serif" font-size="11.00" fill="gray">languages</text>
</g>
<g id="clust14" class="cluster"><title>cluster_\NovemBit\i18n\component\languages\Interfaces</title>
<path fill="none" stroke="gray" d="M479.685,-1498C479.685,-1498 548.685,-1498 548.685,-1498 554.685,-1498 560.685,-1504 560.685,-1510 560.685,-1510 560.685,-1558 560.685,-1558 560.685,-1564 554.685,-1570 548.685,-1570 548.685,-1570 479.685,-1570 479.685,-1570 473.685,-1570 467.685,-1564 467.685,-1558 467.685,-1558 467.685,-1510 467.685,-1510 467.685,-1504 473.685,-1498 479.685,-1498"/>
<text text-anchor="middle" x="514.185" y="-1557.2" font-family="Times New Roman,serif" font-size="11.00" fill="gray">Interfaces</text>
</g>
<g id="clust19" class="cluster"><title>cluster_\NovemBit\i18n\component\translation</title>
<path fill="none" stroke="gray" d="M52,-844C52,-844 726.685,-844 726.685,-844 732.685,-844 738.685,-850 738.685,-856 738.685,-856 738.685,-1470 738.685,-1470 738.685,-1476 732.685,-1482 726.685,-1482 726.685,-1482 52,-1482 52,-1482 46,-1482 40,-1476 40,-1470 40,-1470 40,-856 40,-856 40,-850 46,-844 52,-844"/>
<text text-anchor="middle" x="389.342" y="-1469.2" font-family="Times New Roman,serif" font-size="11.00" fill="gray">translation</text>
</g>
<g id="clust20" class="cluster"><title>cluster_\NovemBit\i18n\component\translation\Interfaces</title>
<path fill="none" stroke="gray" d="M60,-914C60,-914 143,-914 143,-914 149,-914 155,-920 155,-926 155,-926 155,-1028 155,-1028 155,-1034 149,-1040 143,-1040 143,-1040 60,-1040 60,-1040 54,-1040 48,-1034 48,-1028 48,-1028 48,-926 48,-926 48,-920 54,-914 60,-914"/>
<text text-anchor="middle" x="101.5" y="-1027.2" font-family="Times New Roman,serif" font-size="11.00" fill="gray">Interfaces</text>
</g>
<g id="clust21" class="cluster"><title>cluster_\NovemBit\i18n\component\translation\Method</title>
<path fill="none" stroke="gray" d="M273.592,-1274C273.592,-1274 718.685,-1274 718.685,-1274 724.685,-1274 730.685,-1280 730.685,-1286 730.685,-1286 730.685,-1442 730.685,-1442 730.685,-1448 724.685,-1454 718.685,-1454 718.685,-1454 273.592,-1454 273.592,-1454 267.592,-1454 261.592,-1448 261.592,-1442 261.592,-1442 261.592,-1286 261.592,-1286 261.592,-1280 267.592,-1274 273.592,-1274"/>
<text text-anchor="middle" x="496.138" y="-1441.2" font-family="Times New Roman,serif" font-size="11.00" fill="gray">Method</text>
</g>
<g id="clust22" class="cluster"><title>cluster_\NovemBit\i18n\component\translation\Method\Interfaces</title>
<path fill="none" stroke="gray" d="M281.592,-1282C281.592,-1282 330.592,-1282 330.592,-1282 336.592,-1282 342.592,-1288 342.592,-1294 342.592,-1294 342.592,-1342 342.592,-1342 342.592,-1348 336.592,-1354 330.592,-1354 330.592,-1354 281.592,-1354 281.592,-1354 275.592,-1354 269.592,-1348 269.592,-1342 269.592,-1342 269.592,-1294 269.592,-1294 269.592,-1288 275.592,-1282 281.592,-1282"/>
<text text-anchor="middle" x="306.092" y="-1341.2" font-family="Times New Roman,serif" font-size="11.00" fill="gray">Interfaces</text>
</g>
<g id="clust23" class="cluster"><title>cluster_\NovemBit\i18n\component\translation\Type</title>
<path fill="none" stroke="gray" d="M275.092,-950C275.092,-950 703.685,-950 703.685,-950 709.685,-950 715.685,-956 715.685,-962 715.685,-962 715.685,-1254 715.685,-1254 715.685,-1260 709.685,-1266 703.685,-1266 703.685,-1266 275.092,-1266 275.092,-1266 269.092,-1266 263.092,-1260 263.092,-1254 263.092,-1254 263.092,-962 263.092,-962 263.092,-956 269.092,-950 275.092,-950"/>
<text text-anchor="middle" x="489.388" y="-1253.2" font-family="Times New Roman,serif" font-size="11.00" fill="gray">Type</text>
</g>
<g id="clust24" class="cluster"><title>cluster_\NovemBit\i18n\component\translation\Type\interfaces</title>
<path fill="none" stroke="gray" d="M283.092,-1004C283.092,-1004 537.185,-1004 537.185,-1004 543.185,-1004 549.185,-1010 549.185,-1016 549.185,-1016 549.185,-1226 549.185,-1226 549.185,-1232 543.185,-1238 537.185,-1238 537.185,-1238 283.092,-1238 283.092,-1238 277.092,-1238 271.092,-1232 271.092,-1226 271.092,-1226 271.092,-1016 271.092,-1016 271.092,-1010 277.092,-1004 283.092,-1004"/>
<text text-anchor="middle" x="410.138" y="-1225.2" font-family="Times New Roman,serif" font-size="11.00" fill="gray">interfaces</text>
</g>
<g id="clust15" class="cluster"><title>cluster_\NovemBit\i18n\component\request</title>
<path fill="none" stroke="gray" d="M478.185,-728C478.185,-728 708.685,-728 708.685,-728 714.685,-728 720.685,-734 720.685,-740 720.685,-740 720.685,-824 720.685,-824 720.685,-830 714.685,-836 708.685,-836 708.685,-836 478.185,-836 478.185,-836 472.185,-836 466.185,-830 466.185,-824 466.185,-824 466.185,-740 466.185,-740 466.185,-734 472.185,-728 478.185,-728"/>
<text text-anchor="middle" x="593.435" y="-823.2" font-family="Times New Roman,serif" font-size="11.00" fill="gray">request</text>
</g>
<g id="clust16" class="cluster"><title>cluster_\NovemBit\i18n\component\request\Interfaces</title>
<path fill="none" stroke="gray" d="M486.185,-736C486.185,-736 542.185,-736 542.185,-736 548.185,-736 554.185,-742 554.185,-748 554.185,-748 554.185,-796 554.185,-796 554.185,-802 548.185,-808 542.185,-808 542.185,-808 486.185,-808 486.185,-808 480.185,-808 474.185,-802 474.185,-796 474.185,-796 474.185,-748 474.185,-748 474.185,-742 480.185,-736 486.185,-736"/>
<text text-anchor="middle" x="514.185" y="-795.2" font-family="Times New Roman,serif" font-size="11.00" fill="gray">Interfaces</text>
</g>
<g id="clust17" class="cluster"><title>cluster_\NovemBit\i18n\component\rest</title>
<path fill="none" stroke="gray" d="M483.185,-612C483.185,-612 703.685,-612 703.685,-612 709.685,-612 715.685,-618 715.685,-624 715.685,-624 715.685,-708 715.685,-708 715.685,-714 709.685,-720 703.685,-720 703.685,-720 483.185,-720 483.185,-720 477.185,-720 471.185,-714 471.185,-708 471.185,-708 471.185,-624 471.185,-624 471.185,-618 477.185,-612 483.185,-612"/>
<text text-anchor="middle" x="593.435" y="-707.2" font-family="Times New Roman,serif" font-size="11.00" fill="gray">rest</text>
</g>
<g id="clust18" class="cluster"><title>cluster_\NovemBit\i18n\component\rest\Interfaces</title>
<path fill="none" stroke="gray" d="M491.185,-620C491.185,-620 537.185,-620 537.185,-620 543.185,-620 549.185,-626 549.185,-632 549.185,-632 549.185,-680 549.185,-680 549.185,-686 543.185,-692 537.185,-692 537.185,-692 491.185,-692 491.185,-692 485.185,-692 479.185,-686 479.185,-680 479.185,-680 479.185,-632 479.185,-632 479.185,-626 485.185,-620 491.185,-620"/>
<text text-anchor="middle" x="514.185" y="-679.2" font-family="Times New Roman,serif" font-size="11.00" fill="gray">Interfaces</text>
</g>
<g id="clust4" class="cluster"><title>cluster_\NovemBit\i18n\models</title>
<path fill="none" stroke="gray" d="M464.685,-68C464.685,-68 722.185,-68 722.185,-68 728.185,-68 734.185,-74 734.185,-80 734.185,-80 734.185,-208 734.185,-208 734.185,-214 728.185,-220 722.185,-220 722.185,-220 464.685,-220 464.685,-220 458.685,-220 452.685,-214 452.685,-208 452.685,-208 452.685,-80 452.685,-80 452.685,-74 458.685,-68 464.685,-68"/>
<text text-anchor="middle" x="593.435" y="-207.2" font-family="Times New Roman,serif" font-size="11.00" fill="gray">models</text>
</g>
<g id="clust5" class="cluster"><title>cluster_\NovemBit\i18n\models\interfaces</title>
<path fill="none" stroke="gray" d="M472.685,-76C472.685,-76 555.685,-76 555.685,-76 561.685,-76 567.685,-82 567.685,-88 567.685,-88 567.685,-136 567.685,-136 567.685,-142 561.685,-148 555.685,-148 555.685,-148 472.685,-148 472.685,-148 466.685,-148 460.685,-142 460.685,-136 460.685,-136 460.685,-88 460.685,-88 460.685,-82 466.685,-76 472.685,-76"/>
<text text-anchor="middle" x="514.185" y="-135.2" font-family="Times New Roman,serif" font-size="11.00" fill="gray">interfaces</text>
</g>
<g id="clust6" class="cluster"><title>cluster_\NovemBit\i18n\system</title>
<path fill="none" stroke="gray" d="M63.5,-68C63.5,-68 348.592,-68 348.592,-68 354.592,-68 360.592,-74 360.592,-80 360.592,-80 360.592,-540 360.592,-540 360.592,-546 354.592,-552 348.592,-552 348.592,-552 63.5,-552 63.5,-552 57.5,-552 51.5,-546 51.5,-540 51.5,-540 51.5,-80 51.5,-80 51.5,-74 57.5,-68 63.5,-68"/>
<text text-anchor="middle" x="206.046" y="-539.2" font-family="Times New Roman,serif" font-size="11.00" fill="gray">system</text>
</g>
<g id="clust7" class="cluster"><title>cluster_\NovemBit\i18n\system\helpers</title>
<path fill="none" stroke="gray" d="M274.592,-398C274.592,-398 337.592,-398 337.592,-398 343.592,-398 349.592,-404 349.592,-410 349.592,-410 349.592,-512 349.592,-512 349.592,-518 343.592,-524 337.592,-524 337.592,-524 274.592,-524 274.592,-524 268.592,-524 262.592,-518 262.592,-512 262.592,-512 262.592,-410 262.592,-410 262.592,-404 268.592,-398 274.592,-398"/>
<text text-anchor="middle" x="306.092" y="-511.2" font-family="Times New Roman,serif" font-size="11.00" fill="gray">helpers</text>
</g>
<g id="clust8" class="cluster"><title>cluster_\NovemBit\i18n\system\exception</title>
<path fill="none" stroke="gray" d="M271.592,-318C271.592,-318 340.592,-318 340.592,-318 346.592,-318 352.592,-324 352.592,-330 352.592,-330 352.592,-378 352.592,-378 352.592,-384 346.592,-390 340.592,-390 340.592,-390 271.592,-390 271.592,-390 265.592,-390 259.592,-384 259.592,-378 259.592,-378 259.592,-330 259.592,-330 259.592,-324 265.592,-318 271.592,-318"/>
<text text-anchor="middle" x="306.092" y="-377.2" font-family="Times New Roman,serif" font-size="11.00" fill="gray">exception</text>
</g>
<g id="clust9" class="cluster"><title>cluster_\NovemBit\i18n\system\parsers</title>
<path fill="none" stroke="gray" d="M275.092,-156C275.092,-156 337.092,-156 337.092,-156 343.092,-156 349.092,-162 349.092,-168 349.092,-168 349.092,-298 349.092,-298 349.092,-304 343.092,-310 337.092,-310 337.092,-310 275.092,-310 275.092,-310 269.092,-310 263.092,-304 263.092,-298 263.092,-298 263.092,-168 263.092,-168 263.092,-162 269.092,-156 275.092,-156"/>
<text text-anchor="middle" x="306.092" y="-297.2" font-family="Times New Roman,serif" font-size="11.00" fill="gray">parsers</text>
</g>
<g id="clust10" class="cluster"><title>cluster_\NovemBit\i18n\system\parsers\html</title>
<path fill="none" stroke="gray" d="M283.092,-210C283.092,-210 329.092,-210 329.092,-210 335.092,-210 341.092,-216 341.092,-222 341.092,-222 341.092,-270 341.092,-270 341.092,-276 335.092,-282 329.092,-282 329.092,-282 283.092,-282 283.092,-282 277.092,-282 271.092,-276 271.092,-270 271.092,-270 271.092,-222 271.092,-222 271.092,-216 277.092,-210 283.092,-210"/>
<text text-anchor="middle" x="306.092" y="-269.2" font-family="Times New Roman,serif" font-size="11.00" fill="gray">html</text>
</g>
<g id="clust11" class="cluster"><title>cluster_\NovemBit\i18n\system\component</title>
<path fill="none" stroke="gray" d="M283.092,-76C283.092,-76 329.092,-76 329.092,-76 335.092,-76 341.092,-82 341.092,-88 341.092,-88 341.092,-136 341.092,-136 341.092,-142 335.092,-148 329.092,-148 329.092,-148 283.092,-148 283.092,-148 277.092,-148 271.092,-142 271.092,-136 271.092,-136 271.092,-88 271.092,-88 271.092,-82 277.092,-76 283.092,-76"/>
<text text-anchor="middle" x="306.092" y="-135.2" font-family="Times New Roman,serif" font-size="11.00" fill="gray">component</text>
</g>
<!-- \\NovemBit\\i18n\\models\\interfaces\\Translation -->
<g id="node1" class="node"><title>\\NovemBit\\i18n\\models\\interfaces\\Translation</title>
<polygon fill="none" stroke="black" points="559.685,-120 468.685,-120 468.685,-84 559.685,-84 559.685,-120"/>
<text text-anchor="middle" x="514.185" y="-99.2" font-family="Courier,monospace" font-size="11.00">Translation</text>
</g>
<!-- \\NovemBit\\i18n\\models\\ActiveRecord -->
<g id="node2" class="node"><title>\\NovemBit\\i18n\\models\\ActiveRecord</title>
<polygon fill="none" stroke="black" points="563.185,-192 465.185,-192 465.185,-156 563.185,-156 563.185,-192"/>
<text text-anchor="middle" x="514.185" y="-171.2" font-family="Courier,monospace" font-size="11.00">ActiveRecord</text>
</g>
<!-- \\yii\\db\\ActiveRecord -->
<g id="node37" class="node"><title>\\yii\\db\\ActiveRecord</title>
<ellipse fill="none" stroke="black" cx="306.092" cy="-18" rx="87.1846" ry="18"/>
<text text-anchor="middle" x="306.092" y="-14.3" font-family="Times New Roman,serif" font-size="14.00" fill="gray">\yii\db\ActiveRecord</text>
</g>
<!-- \\NovemBit\\i18n\\models\\ActiveRecord&#45;&gt;\\yii\\db\\ActiveRecord -->
<g id="edge1" class="edge"><title>\\NovemBit\\i18n\\models\\ActiveRecord&#45;&gt;\\yii\\db\\ActiveRecord</title>
<path fill="none" stroke="black" d="M464.928,-159.459C460.608,-157.279 456.45,-154.803 452.685,-152 417.144,-125.536 425.735,-102.067 393.185,-72 379.983,-59.8059 363.657,-48.7665 348.784,-39.8935"/>
<polygon fill="none" stroke="black" points="350.158,-36.6447 339.751,-34.6578 346.647,-42.7009 350.158,-36.6447"/>
</g>
<!-- \\NovemBit\\i18n\\models\\Translation -->
<g id="node3" class="node"><title>\\NovemBit\\i18n\\models\\Translation</title>
<polygon fill="none" stroke="black" points="726.185,-156 635.185,-156 635.185,-120 726.185,-120 726.185,-156"/>
<text text-anchor="middle" x="680.685" y="-135.2" font-family="Courier,monospace" font-size="11.00">Translation</text>
</g>
<!-- \\NovemBit\\i18n\\models\\Translation&#45;&gt;\\NovemBit\\i18n\\models\\interfaces\\Translation -->
<g id="edge5" class="edge"><title>\\NovemBit\\i18n\\models\\Translation&#45;&gt;\\NovemBit\\i18n\\models\\interfaces\\Translation</title>
<path fill="none" stroke="black" stroke-dasharray="1,5" d="M635.168,-128.258C614.961,-123.836 590.875,-118.565 569.604,-113.909"/>
<polygon fill="none" stroke="black" points="570.253,-110.469 559.736,-111.75 568.757,-117.307 570.253,-110.469"/>
</g>
<!-- \\NovemBit\\i18n\\models\\Translation&#45;&gt;\\NovemBit\\i18n\\models\\ActiveRecord -->
<g id="edge4" class="edge"><title>\\NovemBit\\i18n\\models\\Translation&#45;&gt;\\NovemBit\\i18n\\models\\ActiveRecord</title>
<path fill="none" stroke="black" d="M635.168,-147.742C616.034,-151.93 593.421,-156.878 573.014,-161.344"/>
<polygon fill="none" stroke="black" points="572.219,-157.935 563.198,-163.492 573.715,-164.774 572.219,-157.935"/>
</g>
<!-- \\NovemBit\\i18n\\system\\helpers\\URL -->
<g id="node4" class="node"><title>\\NovemBit\\i18n\\system\\helpers\\URL</title>
<polygon fill="none" stroke="black" points="333.092,-496 279.092,-496 279.092,-460 333.092,-460 333.092,-496"/>
<text text-anchor="middle" x="306.092" y="-475.2" font-family="Courier,monospace" font-size="11.00">URL</text>
</g>
<!-- \\NovemBit\\i18n\\system\\helpers\\DataType -->
<g id="node5" class="node"><title>\\NovemBit\\i18n\\system\\helpers\\DataType</title>
<polygon fill="none" stroke="black" points="341.592,-442 270.592,-442 270.592,-406 341.592,-406 341.592,-442"/>
<text text-anchor="middle" x="306.092" y="-421.2" font-family="Courier,monospace" font-size="11.00">DataType</text>
</g>
<!-- \\NovemBit\\i18n\\system\\exception\\Exception -->
<g id="node6" class="node"><title>\\NovemBit\\i18n\\system\\exception\\Exception</title>
<polygon fill="none" stroke="black" points="344.592,-362 267.592,-362 267.592,-326 344.592,-326 344.592,-362"/>
<text text-anchor="middle" x="306.092" y="-341.2" font-family="Courier,monospace" font-size="11.00">Exception</text>
</g>
<!-- \\Exception -->
<g id="node38" class="node"><title>\\Exception</title>
<ellipse fill="none" stroke="black" cx="101.5" cy="-18" rx="42.4939" ry="18"/>
<text text-anchor="middle" x="101.5" y="-14.3" font-family="Times New Roman,serif" font-size="14.00" fill="gray">xception</text>
</g>
<!-- \\NovemBit\\i18n\\system\\exception\\Exception&#45;&gt;\\Exception -->
<g id="edge3" class="edge"><title>\\NovemBit\\i18n\\system\\exception\\Exception&#45;&gt;\\Exception</title>
<path fill="none" stroke="black" d="M267.488,-326.348C250.46,-316.626 231.411,-303.046 219,-286 158.561,-202.986 210.065,-150.672 155,-64 149.249,-54.9477 141.2,-46.6567 133.129,-39.6825"/>
<polygon fill="none" stroke="black" points="135.098,-36.7722 125.135,-33.1678 130.676,-42.1984 135.098,-36.7722"/>
</g>
<!-- \\NovemBit\\i18n\\system\\parsers\\html\\Rule -->
<g id="node7" class="node"><title>\\NovemBit\\i18n\\system\\parsers\\html\\Rule</title>
<polygon fill="none" stroke="black" points="333.092,-254 279.092,-254 279.092,-218 333.092,-218 333.092,-254"/>
<text text-anchor="middle" x="306.092" y="-233.2" font-family="Courier,monospace" font-size="11.00">Rule</text>
</g>
<!-- \\NovemBit\\i18n\\system\\parsers\\HTML -->
<g id="node8" class="node"><title>\\NovemBit\\i18n\\system\\parsers\\HTML</title>
<polygon fill="none" stroke="black" points="333.092,-200 279.092,-200 279.092,-164 333.092,-164 333.092,-200"/>
<text text-anchor="middle" x="306.092" y="-179.2" font-family="Courier,monospace" font-size="11.00">HTML</text>
</g>
<!-- \\NovemBit\\i18n\\system\\component\\DB -->
<g id="node9" class="node"><title>\\NovemBit\\i18n\\system\\component\\DB</title>
<polygon fill="none" stroke="black" points="333.092,-120 279.092,-120 279.092,-84 333.092,-84 333.092,-120"/>
<text text-anchor="middle" x="306.092" y="-99.2" font-family="Courier,monospace" font-size="11.00">DB</text>
</g>
<!-- \\NovemBit\\i18n\\system\\Component -->
<g id="node10" class="node"><title>\\NovemBit\\i18n\\system\\Component</title>
<polygon fill="none" stroke="black" points="143.5,-524 59.5,-524 59.5,-488 143.5,-488 143.5,-524"/>
<text text-anchor="start" x="67.5" y="-509.2" font-family="Courier,monospace" font-size="11.00">«abstract»</text>
<text text-anchor="start" x="71" y="-497.2" font-family="Courier,monospace" font-size="11.00">Component</text>
</g>
<!-- \\NovemBit\\i18n\\system\\component\\DB&#45;&gt;\\NovemBit\\i18n\\system\\Component -->
<g id="edge6" class="edge"><title>\\NovemBit\\i18n\\system\\component\\DB&#45;&gt;\\NovemBit\\i18n\\system\\Component</title>
<path fill="none" stroke="black" d="M279.076,-111.235C259.956,-119.263 234.675,-132.667 219,-152 137.338,-252.719 112.137,-412.688 105.043,-477.417"/>
<polygon fill="none" stroke="black" points="101.53,-477.358 103.986,-487.665 108.493,-478.076 101.53,-477.358"/>
</g>
<!-- \\NovemBit\\i18n\\component\\languages\\Interfaces\\Languages -->
<g id="node11" class="node"><title>\\NovemBit\\i18n\\component\\languages\\Interfaces\\Languages</title>
<polygon fill="none" stroke="black" points="552.685,-1542 475.685,-1542 475.685,-1506 552.685,-1506 552.685,-1542"/>
<text text-anchor="middle" x="514.185" y="-1521.2" font-family="Courier,monospace" font-size="11.00">Languages</text>
</g>
<!-- \\NovemBit\\i18n\\component\\languages\\Languages -->
<g id="node12" class="node"><title>\\NovemBit\\i18n\\component\\languages\\Languages</title>
<polygon fill="none" stroke="black" points="719.185,-1534 642.185,-1534 642.185,-1498 719.185,-1498 719.185,-1534"/>
<text text-anchor="middle" x="680.685" y="-1513.2" font-family="Courier,monospace" font-size="11.00">Languages</text>
</g>
<!-- \\NovemBit\\i18n\\component\\languages\\Languages&#45;&gt;\\NovemBit\\i18n\\system\\Component -->
<g id="edge7" class="edge"><title>\\NovemBit\\i18n\\component\\languages\\Languages&#45;&gt;\\NovemBit\\i18n\\system\\Component</title>
<path fill="none" stroke="black" d="M661.355,-1497.87C651.796,-1487.21 640.926,-1472.93 635.185,-1458 567.792,-1282.8 696.883,-752.174 567.685,-616 551.482,-598.923 535.247,-621.313 515.185,-609"/>
</g>
<!-- \\NovemBit\\i18n\\component\\languages\\Languages&#45;&gt;\\NovemBit\\i18n\\component\\languages\\Interfaces\\Languages -->
<g id="edge8" class="edge"><title>\\NovemBit\\i18n\\component\\languages\\Languages&#45;&gt;\\NovemBit\\i18n\\component\\languages\\Interfaces\\Languages</title>
<path fill="none" stroke="black" stroke-dasharray="1,5" d="M641.945,-1517.84C618.435,-1518.98 587.982,-1520.46 562.817,-1521.68"/>
<polygon fill="none" stroke="black" points="562.567,-1518.19 552.749,-1522.17 562.907,-1525.18 562.567,-1518.19"/>
</g>
<!-- \\NovemBit\\i18n\\component\\request\\Interfaces\\Request -->
<g id="node13" class="node"><title>\\NovemBit\\i18n\\component\\request\\Interfaces\\Request</title>
<polygon fill="none" stroke="black" points="546.185,-780 482.185,-780 482.185,-744 546.185,-744 546.185,-780"/>
<text text-anchor="middle" x="514.185" y="-759.2" font-family="Courier,monospace" font-size="11.00">Request</text>
</g>
<!-- \\NovemBit\\i18n\\component\\request\\Request -->
<g id="node14" class="node"><title>\\NovemBit\\i18n\\component\\request\\Request</title>
<polygon fill="none" stroke="black" points="712.685,-772 648.685,-772 648.685,-736 712.685,-736 712.685,-772"/>
<text text-anchor="middle" x="680.685" y="-751.2" font-family="Courier,monospace" font-size="11.00">Request</text>
</g>
<!-- \\NovemBit\\i18n\\component\\request\\Request&#45;&gt;\\NovemBit\\i18n\\system\\Component -->
<g id="edge9" class="edge"><title>\\NovemBit\\i18n\\component\\request\\Request&#45;&gt;\\NovemBit\\i18n\\system\\Component</title>
<path fill="none" stroke="black" d="M649.129,-735.925C644.18,-732.308 639.328,-728.289 635.185,-724 595.857,-683.289 615.267,-646.658 567.685,-616 547.897,-603.25 535.247,-621.313 515.185,-609"/>
</g>
<!-- \\NovemBit\\i18n\\component\\request\\Request&#45;&gt;\\NovemBit\\i18n\\component\\request\\Interfaces\\Request -->
<g id="edge10" class="edge"><title>\\NovemBit\\i18n\\component\\request\\Request&#45;&gt;\\NovemBit\\i18n\\component\\request\\Interfaces\\Request</title>
<path fill="none" stroke="black" stroke-dasharray="1,5" d="M648.356,-755.524C622.287,-756.791 584.966,-758.606 556.462,-759.993"/>
<polygon fill="none" stroke="black" points="556.214,-756.5 546.396,-760.482 556.555,-763.492 556.214,-756.5"/>
</g>
<!-- \\NovemBit\\i18n\\component\\rest\\Interfaces\\Rest -->
<g id="node15" class="node"><title>\\NovemBit\\i18n\\component\\rest\\Interfaces\\Rest</title>
<polygon fill="none" stroke="black" points="541.185,-664 487.185,-664 487.185,-628 541.185,-628 541.185,-664"/>
<text text-anchor="middle" x="514.185" y="-643.2" font-family="Courier,monospace" font-size="11.00">Rest</text>
</g>
<!-- \\NovemBit\\i18n\\component\\rest\\Rest -->
<g id="node16" class="node"><title>\\NovemBit\\i18n\\component\\rest\\Rest</title>
<polygon fill="none" stroke="black" points="707.685,-660 653.685,-660 653.685,-624 707.685,-624 707.685,-660"/>
<text text-anchor="middle" x="680.685" y="-639.2" font-family="Courier,monospace" font-size="11.00">Rest</text>
</g>
<!-- \\NovemBit\\i18n\\component\\rest\\Rest&#45;&gt;\\NovemBit\\i18n\\system\\Component -->
<g id="edge11" class="edge"><title>\\NovemBit\\i18n\\component\\rest\\Rest&#45;&gt;\\NovemBit\\i18n\\system\\Component</title>
<path fill="none" stroke="black" d="M653.581,-635.195C630.976,-629.48 597.338,-621.406 567.685,-616 544.526,-611.778 535.188,-621.409 515.185,-609"/>
<path fill="none" stroke="black" d="M513.185,-609C467.862,-580.883 446.519,-609.778 393.185,-610 315.77,-610.323 291.333,-637.589 219,-610 178.488,-594.548 143.128,-557.816 122.293,-532.421"/>
<polygon fill="none" stroke="black" points="124.773,-529.919 115.797,-524.291 119.304,-534.289 124.773,-529.919"/>
</g>
<!-- \\NovemBit\\i18n\\component\\rest\\Rest&#45;&gt;\\NovemBit\\i18n\\component\\rest\\Interfaces\\Rest -->
<g id="edge12" class="edge"><title>\\NovemBit\\i18n\\component\\rest\\Rest&#45;&gt;\\NovemBit\\i18n\\component\\rest\\Interfaces\\Rest</title>
<path fill="none" stroke="black" stroke-dasharray="1,5" d="M653.619,-642.634C626.147,-643.302 582.655,-644.359 551.757,-645.111"/>
<polygon fill="none" stroke="black" points="551.312,-641.62 541.4,-645.363 551.482,-648.618 551.312,-641.62"/>
</g>
<!-- \\NovemBit\\i18n\\component\\translation\\Interfaces\\Translation -->
<g id="node17" class="node"><title>\\NovemBit\\i18n\\component\\translation\\Interfaces\\Translation</title>
<polygon fill="none" stroke="black" points="147,-958 56,-958 56,-922 147,-922 147,-958"/>
<text text-anchor="middle" x="101.5" y="-937.2" font-family="Courier,monospace" font-size="11.00">Translation</text>
</g>
<!-- \\NovemBit\\i18n\\component\\translation\\Interfaces\\Translator -->
<g id="node18" class="node"><title>\\NovemBit\\i18n\\component\\translation\\Interfaces\\Translator</title>
<polygon fill="none" stroke="black" points="143.5,-1012 59.5,-1012 59.5,-976 143.5,-976 143.5,-1012"/>
<text text-anchor="middle" x="101.5" y="-991.2" font-family="Courier,monospace" font-size="11.00">Translator</text>
</g>
<!-- \\NovemBit\\i18n\\component\\translation\\Method\\Interfaces\\Method -->
<g id="node19" class="node"><title>\\NovemBit\\i18n\\component\\translation\\Method\\Interfaces\\Method</title>
<polygon fill="none" stroke="black" points="334.592,-1326 277.592,-1326 277.592,-1290 334.592,-1290 334.592,-1326"/>
<text text-anchor="middle" x="306.092" y="-1305.2" font-family="Courier,monospace" font-size="11.00">Method</text>
</g>
<!-- \\NovemBit\\i18n\\component\\translation\\Method\\Interfaces\\Method&#45;&gt;\\NovemBit\\i18n\\component\\translation\\Interfaces\\Translator -->
<g id="edge28" class="edge"><title>\\NovemBit\\i18n\\component\\translation\\Method\\Interfaces\\Method&#45;&gt;\\NovemBit\\i18n\\component\\translation\\Interfaces\\Translator</title>
<path fill="none" stroke="black" d="M277.47,-1291.76C259.045,-1279.84 235.301,-1262.24 219,-1242 162.713,-1172.1 126.117,-1070.54 110.759,-1021.94"/>
<polygon fill="none" stroke="black" points="114.023,-1020.65 107.722,-1012.14 107.336,-1022.72 114.023,-1020.65"/>
</g>
<!-- \\NovemBit\\i18n\\component\\translation\\Method\\Dummy -->
<g id="node20" class="node"><title>\\NovemBit\\i18n\\component\\translation\\Method\\Dummy</title>
<polygon fill="none" stroke="black" points="707.685,-1426 653.685,-1426 653.685,-1390 707.685,-1390 707.685,-1426"/>
<text text-anchor="middle" x="680.685" y="-1405.2" font-family="Courier,monospace" font-size="11.00">Dummy</text>
</g>
<!-- \\NovemBit\\i18n\\component\\translation\\Method\\Method -->
<g id="node22" class="node"><title>\\NovemBit\\i18n\\component\\translation\\Method\\Method</title>
<polygon fill="none" stroke="black" points="556.185,-1326 472.185,-1326 472.185,-1290 556.185,-1290 556.185,-1326"/>
<text text-anchor="start" x="480.185" y="-1311.2" font-family="Courier,monospace" font-size="11.00">«abstract»</text>
<text text-anchor="start" x="493.685" y="-1299.2" font-family="Courier,monospace" font-size="11.00">Method</text>
</g>
<!-- \\NovemBit\\i18n\\component\\translation\\Method\\Dummy&#45;&gt;\\NovemBit\\i18n\\component\\translation\\Method\\Method -->
<g id="edge13" class="edge"><title>\\NovemBit\\i18n\\component\\translation\\Method\\Dummy&#45;&gt;\\NovemBit\\i18n\\component\\translation\\Method\\Method</title>
<path fill="none" stroke="black" d="M653.327,-1392.01C647.36,-1388.39 641.054,-1384.57 635.185,-1381 607.834,-1364.38 576.99,-1345.62 553.422,-1331.28"/>
<polygon fill="none" stroke="black" points="555.13,-1328.22 544.768,-1326.01 551.49,-1334.2 555.13,-1328.22"/>
</g>
<!-- \\NovemBit\\i18n\\component\\translation\\Method\\Google -->
<g id="node21" class="node"><title>\\NovemBit\\i18n\\component\\translation\\Method\\Google</title>
<polygon fill="none" stroke="black" points="709.185,-1372 652.185,-1372 652.185,-1336 709.185,-1336 709.185,-1372"/>
<text text-anchor="middle" x="680.685" y="-1351.2" font-family="Courier,monospace" font-size="11.00">Google</text>
</g>
<!-- \\NovemBit\\i18n\\component\\translation\\Method\\Google&#45;&gt;\\NovemBit\\i18n\\component\\translation\\Method\\Method -->
<g id="edge14" class="edge"><title>\\NovemBit\\i18n\\component\\translation\\Method\\Google&#45;&gt;\\NovemBit\\i18n\\component\\translation\\Method\\Method</title>
<path fill="none" stroke="black" d="M652.151,-1346.3C628.751,-1339.76 594.539,-1330.19 566.161,-1322.25"/>
<polygon fill="none" stroke="black" points="566.968,-1318.85 556.395,-1319.52 565.083,-1325.59 566.968,-1318.85"/>
</g>
<!-- \\NovemBit\\i18n\\component\\translation\\Method\\Method&#45;&gt;\\NovemBit\\i18n\\component\\translation\\Method\\Interfaces\\Method -->
<g id="edge16" class="edge"><title>\\NovemBit\\i18n\\component\\translation\\Method\\Method&#45;&gt;\\NovemBit\\i18n\\component\\translation\\Method\\Interfaces\\Method</title>
<path fill="none" stroke="black" stroke-dasharray="1,5" d="M471.974,-1308C434.875,-1308 380.808,-1308 344.822,-1308"/>
<polygon fill="none" stroke="black" points="344.727,-1304.5 334.727,-1308 344.727,-1311.5 344.727,-1304.5"/>
</g>
<!-- \\NovemBit\\i18n\\component\\translation\\Translator -->
<g id="node35" class="node"><title>\\NovemBit\\i18n\\component\\translation\\Translator</title>
<polygon fill="none" stroke="black" points="348.092,-942 264.092,-942 264.092,-906 348.092,-906 348.092,-942"/>
<text text-anchor="start" x="272.092" y="-927.2" font-family="Courier,monospace" font-size="11.00">«abstract»</text>
<text text-anchor="start" x="272.092" y="-915.2" font-family="Courier,monospace" font-size="11.00">Translator</text>
</g>
<!-- \\NovemBit\\i18n\\component\\translation\\Method\\Method&#45;&gt;\\NovemBit\\i18n\\component\\translation\\Translator -->
<g id="edge15" class="edge"><title>\\NovemBit\\i18n\\component\\translation\\Method\\Method&#45;&gt;\\NovemBit\\i18n\\component\\translation\\Translator</title>
<path fill="none" stroke="black" d="M491.758,-1289.83C478.63,-1277.59 462.515,-1260.36 452.685,-1242 400.41,-1144.35 450.541,-1094.75 393.185,-1000 380.852,-979.626 361.283,-961.719 343.917,-948.411"/>
<polygon fill="none" stroke="black" points="345.729,-945.398 335.61,-942.258 341.562,-951.023 345.729,-945.398"/>
</g>
<!-- \\NovemBit\\i18n\\component\\translation\\Method\\RestMethod -->
<g id="node23" class="node"><title>\\NovemBit\\i18n\\component\\translation\\Method\\RestMethod</title>
<polygon fill="none" stroke="black" points="722.685,-1318 638.685,-1318 638.685,-1282 722.685,-1282 722.685,-1318"/>
<text text-anchor="middle" x="680.685" y="-1297.2" font-family="Courier,monospace" font-size="11.00">RestMethod</text>
</g>
<!-- \\NovemBit\\i18n\\component\\translation\\Method\\RestMethod&#45;&gt;\\NovemBit\\i18n\\component\\translation\\Method\\Method -->
<g id="edge17" class="edge"><title>\\NovemBit\\i18n\\component\\translation\\Method\\RestMethod&#45;&gt;\\NovemBit\\i18n\\component\\translation\\Method\\Method</title>
<path fill="none" stroke="black" d="M638.599,-1302C616.714,-1303.06 589.591,-1304.38 566.35,-1305.51"/>
<polygon fill="none" stroke="black" points="566.135,-1302.02 556.317,-1306 566.475,-1309.01 566.135,-1302.02"/>
</g>
<!-- \\NovemBit\\i18n\\component\\translation\\Type\\interfaces\\HTML -->
<g id="node24" class="node"><title>\\NovemBit\\i18n\\component\\translation\\Type\\interfaces\\HTML</title>
<polygon fill="none" stroke="black" points="541.185,-1210 487.185,-1210 487.185,-1174 541.185,-1174 541.185,-1210"/>
<text text-anchor="middle" x="514.185" y="-1189.2" font-family="Courier,monospace" font-size="11.00">HTML</text>
</g>
<!-- \\NovemBit\\i18n\\component\\translation\\Type\\interfaces\\Type -->
<g id="node27" class="node"><title>\\NovemBit\\i18n\\component\\translation\\Type\\interfaces\\Type</title>
<polygon fill="none" stroke="black" points="333.092,-1075 279.092,-1075 279.092,-1039 333.092,-1039 333.092,-1075"/>
<text text-anchor="middle" x="306.092" y="-1054.2" font-family="Courier,monospace" font-size="11.00">Type</text>
</g>
<!-- \\NovemBit\\i18n\\component\\translation\\Type\\interfaces\\HTML&#45;&gt;\\NovemBit\\i18n\\component\\translation\\Type\\interfaces\\Type -->
<g id="edge29" class="edge"><title>\\NovemBit\\i18n\\component\\translation\\Type\\interfaces\\HTML&#45;&gt;\\NovemBit\\i18n\\component\\translation\\Type\\interfaces\\Type</title>
<path fill="none" stroke="black" d="M486.955,-1181.77C476.083,-1177.16 463.508,-1171.33 452.685,-1165 409.904,-1139.99 364.67,-1104.89 336.186,-1081.57"/>
<polygon fill="none" stroke="black" points="338.2,-1078.7 328.259,-1075.03 333.745,-1084.1 338.2,-1078.7"/>
</g>
<!-- \\NovemBit\\i18n\\component\\translation\\Type\\interfaces\\JSON -->
<g id="node25" class="node"><title>\\NovemBit\\i18n\\component\\translation\\Type\\interfaces\\JSON</title>
<polygon fill="none" stroke="black" points="541.185,-1156 487.185,-1156 487.185,-1120 541.185,-1120 541.185,-1156"/>
<text text-anchor="middle" x="514.185" y="-1135.2" font-family="Courier,monospace" font-size="11.00">JSON</text>
</g>
<!-- \\NovemBit\\i18n\\component\\translation\\Type\\interfaces\\JSON&#45;&gt;\\NovemBit\\i18n\\component\\translation\\Type\\interfaces\\Type -->
<g id="edge30" class="edge"><title>\\NovemBit\\i18n\\component\\translation\\Type\\interfaces\\JSON&#45;&gt;\\NovemBit\\i18n\\component\\translation\\Type\\interfaces\\Type</title>
<path fill="none" stroke="black" d="M487.083,-1127.74C450.483,-1113.36 383.794,-1087.15 342.675,-1070.98"/>
<polygon fill="none" stroke="black" points="343.894,-1067.7 333.307,-1067.3 341.333,-1074.22 343.894,-1067.7"/>
</g>
<!-- \\NovemBit\\i18n\\component\\translation\\Type\\interfaces\\Text -->
<g id="node26" class="node"><title>\\NovemBit\\i18n\\component\\translation\\Type\\interfaces\\Text</title>
<polygon fill="none" stroke="black" points="541.185,-1102 487.185,-1102 487.185,-1066 541.185,-1066 541.185,-1102"/>
<text text-anchor="middle" x="514.185" y="-1081.2" font-family="Courier,monospace" font-size="11.00">Text</text>
</g>
<!-- \\NovemBit\\i18n\\component\\translation\\Type\\interfaces\\Text&#45;&gt;\\NovemBit\\i18n\\component\\translation\\Type\\interfaces\\Type -->
<g id="edge31" class="edge"><title>\\NovemBit\\i18n\\component\\translation\\Type\\interfaces\\Text&#45;&gt;\\NovemBit\\i18n\\component\\translation\\Type\\interfaces\\Type</title>
<path fill="none" stroke="black" d="M487.083,-1080.58C450.714,-1075.82 384.637,-1067.16 343.458,-1061.76"/>
<polygon fill="none" stroke="black" points="343.677,-1058.26 333.307,-1060.43 342.767,-1065.2 343.677,-1058.26"/>
</g>
<!-- \\NovemBit\\i18n\\component\\translation\\Type\\interfaces\\Type&#45;&gt;\\NovemBit\\i18n\\component\\translation\\Interfaces\\Translator -->
<g id="edge32" class="edge"><title>\\NovemBit\\i18n\\component\\translation\\Type\\interfaces\\Type&#45;&gt;\\NovemBit\\i18n\\component\\translation\\Interfaces\\Translator</title>
<path fill="none" stroke="black" d="M278.932,-1050.95C261.782,-1046.83 238.931,-1041.04 219,-1035 197.31,-1028.43 173.67,-1020.29 153.388,-1013"/>
<polygon fill="none" stroke="black" points="154.318,-1009.62 143.724,-1009.51 151.936,-1016.2 154.318,-1009.62"/>
</g>
<!-- \\NovemBit\\i18n\\component\\translation\\Type\\interfaces\\URL -->
<g id="node28" class="node"><title>\\NovemBit\\i18n\\component\\translation\\Type\\interfaces\\URL</title>
<polygon fill="none" stroke="black" points="541.185,-1048 487.185,-1048 487.185,-1012 541.185,-1012 541.185,-1048"/>
<text text-anchor="middle" x="514.185" y="-1027.2" font-family="Courier,monospace" font-size="11.00">URL</text>
</g>
<!-- \\NovemBit\\i18n\\component\\translation\\Type\\interfaces\\URL&#45;&gt;\\NovemBit\\i18n\\component\\translation\\Type\\interfaces\\Type -->
<g id="edge33" class="edge"><title>\\NovemBit\\i18n\\component\\translation\\Type\\interfaces\\URL&#45;&gt;\\NovemBit\\i18n\\component\\translation\\Type\\interfaces\\Type</title>
<path fill="none" stroke="black" d="M487.083,-1033.42C450.714,-1038.18 384.637,-1046.84 343.458,-1052.24"/>
<polygon fill="none" stroke="black" points="342.767,-1048.8 333.307,-1053.57 343.677,-1055.74 342.767,-1048.8"/>
</g>
<!-- \\NovemBit\\i18n\\component\\translation\\Type\\HTML -->
<g id="node29" class="node"><title>\\NovemBit\\i18n\\component\\translation\\Type\\HTML</title>
<polygon fill="none" stroke="black" points="707.685,-1156 653.685,-1156 653.685,-1120 707.685,-1120 707.685,-1156"/>
<text text-anchor="middle" x="680.685" y="-1135.2" font-family="Courier,monospace" font-size="11.00">HTML</text>
</g>
<!-- \\NovemBit\\i18n\\component\\translation\\Type\\Type -->
<g id="node32" class="node"><title>\\NovemBit\\i18n\\component\\translation\\Type\\Type</title>
<polygon fill="none" stroke="black" points="556.185,-994 472.185,-994 472.185,-958 556.185,-958 556.185,-994"/>
<text text-anchor="start" x="480.185" y="-979.2" font-family="Courier,monospace" font-size="11.00">«abstract»</text>
<text text-anchor="start" x="500.185" y="-967.2" font-family="Courier,monospace" font-size="11.00">Type</text>
</g>
<!-- \\NovemBit\\i18n\\component\\translation\\Type\\HTML&#45;&gt;\\NovemBit\\i18n\\component\\translation\\Type\\Type -->
<g id="edge22" class="edge"><title>\\NovemBit\\i18n\\component\\translation\\Type\\HTML&#45;&gt;\\NovemBit\\i18n\\component\\translation\\Type\\Type</title>
<path fill="none" stroke="black" d="M653.222,-1124.79C646.876,-1120.89 640.427,-1116.24 635.185,-1111 594.337,-1070.19 610.84,-1038.36 567.685,-1000 566.715,-999.139 565.71,-998.303 564.675,-997.493"/>
<polygon fill="none" stroke="black" points="566.491,-994.495 556.252,-991.771 562.558,-1000.29 566.491,-994.495"/>
</g>
<!-- \\NovemBit\\i18n\\component\\translation\\Type\\JSON -->
<g id="node30" class="node"><title>\\NovemBit\\i18n\\component\\translation\\Type\\JSON</title>
<polygon fill="none" stroke="black" points="707.685,-1102 653.685,-1102 653.685,-1066 707.685,-1066 707.685,-1102"/>
<text text-anchor="middle" x="680.685" y="-1081.2" font-family="Courier,monospace" font-size="11.00">JSON</text>
</g>
<!-- \\NovemBit\\i18n\\component\\translation\\Type\\JSON&#45;&gt;\\NovemBit\\i18n\\component\\translation\\Type\\Type -->
<g id="edge23" class="edge"><title>\\NovemBit\\i18n\\component\\translation\\Type\\JSON&#45;&gt;\\NovemBit\\i18n\\component\\translation\\Type\\Type</title>
<path fill="none" stroke="black" d="M653.361,-1068.96C647.274,-1065.23 640.908,-1061.11 635.185,-1057 603.303,-1034.08 600.847,-1021.02 567.685,-1000 566.907,-999.507 566.117,-999.018 565.318,-998.535"/>
<polygon fill="none" stroke="black" points="566.888,-995.402 556.456,-993.549 563.456,-1001.5 566.888,-995.402"/>
</g>
<!-- \\NovemBit\\i18n\\component\\translation\\Type\\Text -->
<g id="node31" class="node"><title>\\NovemBit\\i18n\\component\\translation\\Type\\Text</title>
<polygon fill="none" stroke="black" points="707.685,-1048 653.685,-1048 653.685,-1012 707.685,-1012 707.685,-1048"/>
<text text-anchor="middle" x="680.685" y="-1027.2" font-family="Courier,monospace" font-size="11.00">Text</text>
</g>
<!-- \\NovemBit\\i18n\\component\\translation\\Type\\Text&#45;&gt;\\NovemBit\\i18n\\component\\translation\\Type\\Type -->
<g id="edge24" class="edge"><title>\\NovemBit\\i18n\\component\\translation\\Type\\Text&#45;&gt;\\NovemBit\\i18n\\component\\translation\\Type\\Type</title>
<path fill="none" stroke="black" d="M653.619,-1021.44C630.096,-1013.72 594.829,-1002.14 565.779,-992.609"/>
<polygon fill="none" stroke="black" points="566.785,-989.255 556.192,-989.461 564.601,-995.906 566.785,-989.255"/>
</g>
<!-- \\NovemBit\\i18n\\component\\translation\\Type\\Type&#45;&gt;\\NovemBit\\i18n\\component\\translation\\Type\\interfaces\\Type -->
<g id="edge26" class="edge"><title>\\NovemBit\\i18n\\component\\translation\\Type\\Type&#45;&gt;\\NovemBit\\i18n\\component\\translation\\Type\\interfaces\\Type</title>
<path fill="none" stroke="black" stroke-dasharray="1,5" d="M472.132,-991.292C465.554,-994.026 458.877,-996.973 452.685,-1000 425.121,-1013.47 421.55,-1023.31 393.185,-1035 377.273,-1041.56 358.879,-1046.58 343.189,-1050.16"/>
<polygon fill="none" stroke="black" points="342.35,-1046.76 333.322,-1052.3 343.837,-1053.6 342.35,-1046.76"/>
</g>
<!-- \\NovemBit\\i18n\\component\\translation\\Type\\Type&#45;&gt;\\NovemBit\\i18n\\component\\translation\\Translator -->
<g id="edge25" class="edge"><title>\\NovemBit\\i18n\\component\\translation\\Type\\Type&#45;&gt;\\NovemBit\\i18n\\component\\translation\\Translator</title>
<path fill="none" stroke="black" d="M471.974,-965.602C439.259,-957.347 393.348,-945.763 358.277,-936.915"/>
<polygon fill="none" stroke="black" points="358.784,-933.433 348.231,-934.38 357.071,-940.22 358.784,-933.433"/>
</g>
<!-- \\NovemBit\\i18n\\component\\translation\\Type\\URL -->
<g id="node33" class="node"><title>\\NovemBit\\i18n\\component\\translation\\Type\\URL</title>
<polygon fill="none" stroke="black" points="707.685,-994 653.685,-994 653.685,-958 707.685,-958 707.685,-994"/>
<text text-anchor="middle" x="680.685" y="-973.2" font-family="Courier,monospace" font-size="11.00">URL</text>
</g>
<!-- \\NovemBit\\i18n\\component\\translation\\Type\\URL&#45;&gt;\\NovemBit\\i18n\\component\\translation\\Type\\Type -->
<g id="edge27" class="edge"><title>\\NovemBit\\i18n\\component\\translation\\Type\\URL&#45;&gt;\\NovemBit\\i18n\\component\\translation\\Type\\Type</title>
<path fill="none" stroke="black" d="M653.619,-976C630.301,-976 595.442,-976 566.539,-976"/>
<polygon fill="none" stroke="black" points="566.192,-972.5 556.192,-976 566.192,-979.5 566.192,-972.5"/>
</g>
<!-- \\NovemBit\\i18n\\component\\translation\\Translation -->
<g id="node34" class="node"><title>\\NovemBit\\i18n\\component\\translation\\Translation</title>
<polygon fill="none" stroke="black" points="351.592,-888 260.592,-888 260.592,-852 351.592,-852 351.592,-888"/>
<text text-anchor="middle" x="306.092" y="-867.2" font-family="Courier,monospace" font-size="11.00">Translation</text>
</g>
<!-- \\NovemBit\\i18n\\component\\translation\\Translation&#45;&gt;\\NovemBit\\i18n\\system\\Component -->
<g id="edge18" class="edge"><title>\\NovemBit\\i18n\\component\\translation\\Translation&#45;&gt;\\NovemBit\\i18n\\system\\Component</title>
<path fill="none" stroke="black" d="M295.046,-851.949C262.036,-792.641 156.788,-603.539 117.489,-532.931"/>
<polygon fill="none" stroke="black" points="120.529,-531.195 112.607,-524.16 114.412,-534.6 120.529,-531.195"/>
</g>
<!-- \\NovemBit\\i18n\\component\\translation\\Translation&#45;&gt;\\NovemBit\\i18n\\component\\translation\\Interfaces\\Translation -->
<g id="edge19" class="edge"><title>\\NovemBit\\i18n\\component\\translation\\Translation&#45;&gt;\\NovemBit\\i18n\\component\\translation\\Interfaces\\Translation</title>
<path fill="none" stroke="black" stroke-dasharray="1,5" d="M260.271,-883.594C246.945,-887.76 232.343,-892.448 219,-897 198.484,-903.999 176.112,-912.133 156.507,-919.431"/>
<polygon fill="none" stroke="black" points="155.267,-916.158 147.125,-922.938 157.718,-922.715 155.267,-916.158"/>
</g>
<!-- \\NovemBit\\i18n\\component\\translation\\Translator&#45;&gt;\\NovemBit\\i18n\\system\\Component -->
<g id="edge20" class="edge"><title>\\NovemBit\\i18n\\component\\translation\\Translator&#45;&gt;\\NovemBit\\i18n\\system\\Component</title>
<path fill="none" stroke="black" d="M263.948,-919.442C248.055,-915.736 230.877,-909.048 219,-897 117.284,-793.816 103.737,-605.885 102.4,-534.521"/>
<polygon fill="none" stroke="black" points="105.895,-534.058 102.279,-524.1 98.8957,-534.14 105.895,-534.058"/>
</g>
<!-- \\NovemBit\\i18n\\component\\translation\\Translator&#45;&gt;\\NovemBit\\i18n\\component\\translation\\Interfaces\\Translator -->
<g id="edge21" class="edge"><title>\\NovemBit\\i18n\\component\\translation\\Translator&#45;&gt;\\NovemBit\\i18n\\component\\translation\\Interfaces\\Translator</title>
<path fill="none" stroke="black" stroke-dasharray="1,5" d="M263.606,-938.334C231.681,-949.365 187.407,-964.663 153.35,-976.43"/>
<polygon fill="none" stroke="black" points="151.893,-973.231 143.584,-979.804 154.179,-979.847 151.893,-973.231"/>
</g>
<!-- \\NovemBit\\i18n\\Module -->
<g id="node36" class="node"><title>\\NovemBit\\i18n\\Module</title>
<polygon fill="none" stroke="black" points="334.592,-596 277.592,-596 277.592,-560 334.592,-560 334.592,-596"/>
<text text-anchor="middle" x="306.092" y="-575.2" font-family="Courier,monospace" font-size="11.00">Module</text>
</g>
<!-- \\NovemBit\\i18n\\Module&#45;&gt;\\NovemBit\\i18n\\system\\Component -->
<g id="edge2" class="edge"><title>\\NovemBit\\i18n\\Module&#45;&gt;\\NovemBit\\i18n\\system\\Component</title>
<path fill="none" stroke="black" d="M277.347,-568.14C245.479,-556.814 192.536,-537.998 153.242,-524.033"/>
<polygon fill="none" stroke="black" points="154.162,-520.646 143.567,-520.595 151.818,-527.242 154.162,-520.646"/>
</g>
</g>
</svg>
