<?xml version="1.0" encoding="UTF-8" standalone="no"?>
<!DOCTYPE svg PUBLIC "-//W3C//DTD SVG 1.1//EN"
 "http://www.w3.org/Graphics/SVG/1.1/DTD/svg11.dtd">
<!-- Generated by graphviz version 2.38.0 (20140413.2041)
 -->
<!-- Title: G Pages: 1 -->
<svg width="764pt" height="1404pt"
 viewBox="0.00 0.00 763.93 1404.00" xmlns="http://www.w3.org/2000/svg" xmlns:xlink="http://www.w3.org/1999/xlink">
<g id="graph0" class="graph" transform="scale(1 1) rotate(0) translate(4 1400)">
<title>G</title>
<polygon fill="white" stroke="none" points="-4,4 -4,-1400 759.931,-1400 759.931,4 -4,4"/>
<g id="clust1" class="cluster"><title>cluster_Global</title>
<path fill="none" stroke="gray" d="M20,-44C20,-44 735.931,-44 735.931,-44 741.931,-44 747.931,-50 747.931,-56 747.931,-56 747.931,-1376 747.931,-1376 747.931,-1382 741.931,-1388 735.931,-1388 735.931,-1388 20,-1388 20,-1388 14,-1388 8,-1382 8,-1376 8,-1376 8,-56 8,-56 8,-50 14,-44 20,-44"/>
<text text-anchor="middle" x="377.965" y="-1375.2" font-family="Times New Roman,serif" font-size="11.00" fill="gray">Global</text>
</g>
<g id="clust2" class="cluster"><title>cluster_\NovemBit</title>
<path fill="none" stroke="gray" d="M28,-52C28,-52 727.931,-52 727.931,-52 733.931,-52 739.931,-58 739.931,-64 739.931,-64 739.931,-1348 739.931,-1348 739.931,-1354 733.931,-1360 727.931,-1360 727.931,-1360 28,-1360 28,-1360 22,-1360 16,-1354 16,-1348 16,-1348 16,-64 16,-64 16,-58 22,-52 28,-52"/>
<text text-anchor="middle" x="377.965" y="-1347.2" font-family="Times New Roman,serif" font-size="11.00" fill="gray">NovemBit</text>
</g>
<g id="clust3" class="cluster"><title>cluster_\NovemBit\i18n</title>
<path fill="none" stroke="gray" d="M36,-60C36,-60 719.931,-60 719.931,-60 725.931,-60 731.931,-66 731.931,-72 731.931,-72 731.931,-1320 731.931,-1320 731.931,-1326 725.931,-1332 719.931,-1332 719.931,-1332 36,-1332 36,-1332 30,-1332 24,-1326 24,-1320 24,-1320 24,-72 24,-72 24,-66 30,-60 36,-60"/>
<text text-anchor="middle" x="377.965" y="-1319.2" font-family="Times New Roman,serif" font-size="11.00" fill="gray">i18n</text>
</g>
<g id="clust8" class="cluster"><title>cluster_\NovemBit\i18n\models</title>
<path fill="none" stroke="gray" d="M446.431,-68C446.431,-68 699.431,-68 699.431,-68 705.431,-68 711.431,-74 711.431,-80 711.431,-80 711.431,-128 711.431,-128 711.431,-134 705.431,-140 699.431,-140 699.431,-140 446.431,-140 446.431,-140 440.431,-140 434.431,-134 434.431,-128 434.431,-128 434.431,-80 434.431,-80 434.431,-74 440.431,-68 446.431,-68"/>
<text text-anchor="middle" x="572.931" y="-127.2" font-family="Times New Roman,serif" font-size="11.00" fill="gray">models</text>
</g>
<g id="clust9" class="cluster"><title>cluster_\NovemBit\i18n\system</title>
<path fill="none" stroke="gray" d="M44,-68C44,-68 325.839,-68 325.839,-68 331.839,-68 337.839,-74 337.839,-80 337.839,-80 337.839,-540 337.839,-540 337.839,-546 331.839,-552 325.839,-552 325.839,-552 44,-552 44,-552 38,-552 32,-546 32,-540 32,-540 32,-80 32,-80 32,-74 38,-68 44,-68"/>
<text text-anchor="middle" x="184.919" y="-539.2" font-family="Times New Roman,serif" font-size="11.00" fill="gray">system</text>
</g>
<g id="clust10" class="cluster"><title>cluster_\NovemBit\i18n\system\helpers</title>
<path fill="none" stroke="gray" d="M251.839,-398C251.839,-398 314.839,-398 314.839,-398 320.839,-398 326.839,-404 326.839,-410 326.839,-410 326.839,-512 326.839,-512 326.839,-518 320.839,-524 314.839,-524 314.839,-524 251.839,-524 251.839,-524 245.839,-524 239.839,-518 239.839,-512 239.839,-512 239.839,-410 239.839,-410 239.839,-404 245.839,-398 251.839,-398"/>
<text text-anchor="middle" x="283.339" y="-511.2" font-family="Times New Roman,serif" font-size="11.00" fill="gray">helpers</text>
</g>
<g id="clust11" class="cluster"><title>cluster_\NovemBit\i18n\system\exception</title>
<path fill="none" stroke="gray" d="M248.839,-318C248.839,-318 317.839,-318 317.839,-318 323.839,-318 329.839,-324 329.839,-330 329.839,-330 329.839,-378 329.839,-378 329.839,-384 323.839,-390 317.839,-390 317.839,-390 248.839,-390 248.839,-390 242.839,-390 236.839,-384 236.839,-378 236.839,-378 236.839,-330 236.839,-330 236.839,-324 242.839,-318 248.839,-318"/>
<text text-anchor="middle" x="283.339" y="-377.2" font-family="Times New Roman,serif" font-size="11.00" fill="gray">exception</text>
</g>
<g id="clust12" class="cluster"><title>cluster_\NovemBit\i18n\system\parsers</title>
<path fill="none" stroke="gray" d="M252.339,-156C252.339,-156 314.339,-156 314.339,-156 320.339,-156 326.339,-162 326.339,-168 326.339,-168 326.339,-298 326.339,-298 326.339,-304 320.339,-310 314.339,-310 314.339,-310 252.339,-310 252.339,-310 246.339,-310 240.339,-304 240.339,-298 240.339,-298 240.339,-168 240.339,-168 240.339,-162 246.339,-156 252.339,-156"/>
<text text-anchor="middle" x="283.339" y="-297.2" font-family="Times New Roman,serif" font-size="11.00" fill="gray">parsers</text>
</g>
<g id="clust13" class="cluster"><title>cluster_\NovemBit\i18n\system\parsers\html</title>
<path fill="none" stroke="gray" d="M260.339,-210C260.339,-210 306.339,-210 306.339,-210 312.339,-210 318.339,-216 318.339,-222 318.339,-222 318.339,-270 318.339,-270 318.339,-276 312.339,-282 306.339,-282 306.339,-282 260.339,-282 260.339,-282 254.339,-282 248.339,-276 248.339,-270 248.339,-270 248.339,-222 248.339,-222 248.339,-216 254.339,-210 260.339,-210"/>
<text text-anchor="middle" x="283.339" y="-269.2" font-family="Times New Roman,serif" font-size="11.00" fill="gray">html</text>
</g>
<g id="clust14" class="cluster"><title>cluster_\NovemBit\i18n\system\component</title>
<path fill="none" stroke="gray" d="M260.339,-76C260.339,-76 306.339,-76 306.339,-76 312.339,-76 318.339,-82 318.339,-88 318.339,-88 318.339,-136 318.339,-136 318.339,-142 312.339,-148 306.339,-148 306.339,-148 260.339,-148 260.339,-148 254.339,-148 248.339,-142 248.339,-136 248.339,-136 248.339,-88 248.339,-88 248.339,-82 254.339,-76 260.339,-76"/>
<text text-anchor="middle" x="283.339" y="-135.2" font-family="Times New Roman,serif" font-size="11.00" fill="gray">component</text>
</g>
<g id="clust4" class="cluster"><title>cluster_\NovemBit\i18n\component</title>
<path fill="none" stroke="gray" d="M233.839,-560C233.839,-560 711.931,-560 711.931,-560 717.931,-560 723.931,-566 723.931,-572 723.931,-572 723.931,-1248 723.931,-1248 723.931,-1254 717.931,-1260 711.931,-1260 711.931,-1260 233.839,-1260 233.839,-1260 227.839,-1260 221.839,-1254 221.839,-1248 221.839,-1248 221.839,-572 221.839,-572 221.839,-566 227.839,-560 233.839,-560"/>
<text text-anchor="middle" x="472.885" y="-1247.2" font-family="Times New Roman,serif" font-size="11.00" fill="gray">component</text>
</g>
<g id="clust5" class="cluster"><title>cluster_\NovemBit\i18n\component\translation</title>
<path fill="none" stroke="gray" d="M241.839,-774C241.839,-774 703.931,-774 703.931,-774 709.931,-774 715.931,-780 715.931,-786 715.931,-786 715.931,-1220 715.931,-1220 715.931,-1226 709.931,-1232 703.931,-1232 703.931,-1232 241.839,-1232 241.839,-1232 235.839,-1232 229.839,-1226 229.839,-1220 229.839,-1220 229.839,-786 229.839,-786 229.839,-780 235.839,-774 241.839,-774"/>
<text text-anchor="middle" x="472.885" y="-1219.2" font-family="Times New Roman,serif" font-size="11.00" fill="gray">translation</text>
</g>
<g id="clust6" class="cluster"><title>cluster_\NovemBit\i18n\component\translation\type</title>
<path fill="none" stroke="gray" d="M453.431,-970C453.431,-970 680.931,-970 680.931,-970 686.931,-970 692.931,-976 692.931,-982 692.931,-982 692.931,-1192 692.931,-1192 692.931,-1198 686.931,-1204 680.931,-1204 680.931,-1204 453.431,-1204 453.431,-1204 447.431,-1204 441.431,-1198 441.431,-1192 441.431,-1192 441.431,-982 441.431,-982 441.431,-976 447.431,-970 453.431,-970"/>
<text text-anchor="middle" x="567.181" y="-1191.2" font-family="Times New Roman,serif" font-size="11.00" fill="gray">type</text>
</g>
<g id="clust7" class="cluster"><title>cluster_\NovemBit\i18n\component\translation\method</title>
<path fill="none" stroke="gray" d="M453.431,-782C453.431,-782 695.931,-782 695.931,-782 701.931,-782 707.931,-788 707.931,-794 707.931,-794 707.931,-950 707.931,-950 707.931,-956 701.931,-962 695.931,-962 695.931,-962 453.431,-962 453.431,-962 447.431,-962 441.431,-956 441.431,-950 441.431,-950 441.431,-794 441.431,-794 441.431,-788 447.431,-782 453.431,-782"/>
<text text-anchor="middle" x="574.681" y="-949.2" font-family="Times New Roman,serif" font-size="11.00" fill="gray">method</text>
</g>
<!-- \\NovemBit\\i18n\\component\\translation\\type\\Text -->
<g id="node1" class="node"><title>\\NovemBit\\i18n\\component\\translation\\type\\Text</title>
<polygon fill="none" stroke="black" points="684.931,-1176 630.931,-1176 630.931,-1140 684.931,-1140 684.931,-1176"/>
<text text-anchor="middle" x="657.931" y="-1155.2" font-family="Courier,monospace" font-size="11.00">Text</text>
</g>
<!-- \\NovemBit\\i18n\\component\\translation\\type\\Type -->
<g id="node4" class="node"><title>\\NovemBit\\i18n\\component\\translation\\type\\Type</title>
<polygon fill="none" stroke="black" points="533.431,-1068 449.431,-1068 449.431,-1032 533.431,-1032 533.431,-1068"/>
<text text-anchor="start" x="457.431" y="-1053.2" font-family="Courier,monospace" font-size="11.00">«abstract»</text>
<text text-anchor="start" x="477.431" y="-1041.2" font-family="Courier,monospace" font-size="11.00">Type</text>
</g>
<!-- \\NovemBit\\i18n\\component\\translation\\type\\Text&#45;&gt;\\NovemBit\\i18n\\component\\translation\\type\\Type -->
<g id="edge3" class="edge"><title>\\NovemBit\\i18n\\component\\translation\\type\\Text&#45;&gt;\\NovemBit\\i18n\\component\\translation\\type\\Type</title>
<path fill="none" stroke="black" d="M630.916,-1142.51C624.816,-1138.79 618.367,-1134.8 612.431,-1131 583.21,-1112.29 550.609,-1090.2 526.771,-1073.82"/>
<polygon fill="none" stroke="black" points="528.628,-1070.85 518.407,-1068.06 524.658,-1076.62 528.628,-1070.85"/>
</g>
<!-- \\NovemBit\\i18n\\component\\translation\\type\\HTML -->
<g id="node2" class="node"><title>\\NovemBit\\i18n\\component\\translation\\type\\HTML</title>
<polygon fill="none" stroke="black" points="684.931,-1122 630.931,-1122 630.931,-1086 684.931,-1086 684.931,-1122"/>
<text text-anchor="middle" x="657.931" y="-1101.2" font-family="Courier,monospace" font-size="11.00">HTML</text>
</g>
<!-- \\NovemBit\\i18n\\component\\translation\\type\\HTML&#45;&gt;\\NovemBit\\i18n\\component\\translation\\type\\Type -->
<g id="edge8" class="edge"><title>\\NovemBit\\i18n\\component\\translation\\type\\HTML&#45;&gt;\\NovemBit\\i18n\\component\\translation\\type\\Type</title>
<path fill="none" stroke="black" d="M630.865,-1095.44C607.342,-1087.72 572.076,-1076.14 543.026,-1066.61"/>
<polygon fill="none" stroke="black" points="544.031,-1063.25 533.438,-1063.46 541.848,-1069.91 544.031,-1063.25"/>
</g>
<!-- \\NovemBit\\i18n\\component\\translation\\type\\JSON -->
<g id="node3" class="node"><title>\\NovemBit\\i18n\\component\\translation\\type\\JSON</title>
<polygon fill="none" stroke="black" points="684.931,-1068 630.931,-1068 630.931,-1032 684.931,-1032 684.931,-1068"/>
<text text-anchor="middle" x="657.931" y="-1047.2" font-family="Courier,monospace" font-size="11.00">JSON</text>
</g>
<!-- \\NovemBit\\i18n\\component\\translation\\type\\JSON&#45;&gt;\\NovemBit\\i18n\\component\\translation\\type\\Type -->
<g id="edge11" class="edge"><title>\\NovemBit\\i18n\\component\\translation\\type\\JSON&#45;&gt;\\NovemBit\\i18n\\component\\translation\\type\\Type</title>
<path fill="none" stroke="black" d="M630.865,-1050C607.547,-1050 572.688,-1050 543.785,-1050"/>
<polygon fill="none" stroke="black" points="543.438,-1046.5 533.438,-1050 543.438,-1053.5 543.438,-1046.5"/>
</g>
<!-- \\NovemBit\\i18n\\component\\translation\\Translation -->
<g id="node10" class="node"><title>\\NovemBit\\i18n\\component\\translation\\Translation</title>
<polygon fill="none" stroke="black" points="328.839,-880 237.839,-880 237.839,-844 328.839,-844 328.839,-880"/>
<text text-anchor="start" x="249.339" y="-865.2" font-family="Courier,monospace" font-size="11.00">«abstract»</text>
<text text-anchor="start" x="245.839" y="-853.2" font-family="Courier,monospace" font-size="11.00">Translation</text>
</g>
<!-- \\NovemBit\\i18n\\component\\translation\\type\\Type&#45;&gt;\\NovemBit\\i18n\\component\\translation\\Translation -->
<g id="edge14" class="edge"><title>\\NovemBit\\i18n\\component\\translation\\type\\Type&#45;&gt;\\NovemBit\\i18n\\component\\translation\\Translation</title>
<path fill="none" stroke="black" d="M478.24,-1031.7C450.755,-990.654 385.204,-894.053 370.431,-884 360.961,-877.556 349.742,-872.999 338.585,-869.777"/>
<polygon fill="none" stroke="black" points="339.399,-866.372 328.843,-867.275 337.658,-873.152 339.399,-866.372"/>
</g>
<!-- \\NovemBit\\i18n\\component\\translation\\type\\URL -->
<g id="node5" class="node"><title>\\NovemBit\\i18n\\component\\translation\\type\\URL</title>
<polygon fill="none" stroke="black" points="684.931,-1014 630.931,-1014 630.931,-978 684.931,-978 684.931,-1014"/>
<text text-anchor="middle" x="657.931" y="-993.2" font-family="Courier,monospace" font-size="11.00">URL</text>
</g>
<!-- \\NovemBit\\i18n\\component\\translation\\type\\URL&#45;&gt;\\NovemBit\\i18n\\component\\translation\\type\\Type -->
<g id="edge16" class="edge"><title>\\NovemBit\\i18n\\component\\translation\\type\\URL&#45;&gt;\\NovemBit\\i18n\\component\\translation\\type\\Type</title>
<path fill="none" stroke="black" d="M630.865,-1004.56C607.342,-1012.28 572.076,-1023.86 543.026,-1033.39"/>
<polygon fill="none" stroke="black" points="541.848,-1030.09 533.438,-1036.54 544.031,-1036.75 541.848,-1030.09"/>
</g>
<!-- \\NovemBit\\i18n\\component\\translation\\method\\Google -->
<g id="node6" class="node"><title>\\NovemBit\\i18n\\component\\translation\\method\\Google</title>
<polygon fill="none" stroke="black" points="686.431,-934 629.431,-934 629.431,-898 686.431,-898 686.431,-934"/>
<text text-anchor="middle" x="657.931" y="-913.2" font-family="Courier,monospace" font-size="11.00">Google</text>
</g>
<!-- \\NovemBit\\i18n\\component\\translation\\method\\Method -->
<g id="node7" class="node"><title>\\NovemBit\\i18n\\component\\translation\\method\\Method</title>
<polygon fill="none" stroke="black" points="533.431,-880 449.431,-880 449.431,-844 533.431,-844 533.431,-880"/>
<text text-anchor="start" x="457.431" y="-865.2" font-family="Courier,monospace" font-size="11.00">«abstract»</text>
<text text-anchor="start" x="470.931" y="-853.2" font-family="Courier,monospace" font-size="11.00">Method</text>
</g>
<!-- \\NovemBit\\i18n\\component\\translation\\method\\Google&#45;&gt;\\NovemBit\\i18n\\component\\translation\\method\\Method -->
<g id="edge4" class="edge"><title>\\NovemBit\\i18n\\component\\translation\\method\\Google&#45;&gt;\\NovemBit\\i18n\\component\\translation\\method\\Method</title>
<path fill="none" stroke="black" d="M629.397,-906.962C605.998,-899.28 571.785,-888.049 543.408,-878.734"/>
<polygon fill="none" stroke="black" points="544.234,-875.322 533.641,-875.528 542.05,-881.972 544.234,-875.322"/>
</g>
<!-- \\NovemBit\\i18n\\component\\translation\\method\\Method&#45;&gt;\\NovemBit\\i18n\\component\\translation\\Translation -->
<g id="edge5" class="edge"><title>\\NovemBit\\i18n\\component\\translation\\method\\Method&#45;&gt;\\NovemBit\\i18n\\component\\translation\\Translation</title>
<path fill="none" stroke="black" d="M449.22,-862C417.71,-862 373.958,-862 339.441,-862"/>
<polygon fill="none" stroke="black" points="339.05,-858.5 329.05,-862 339.05,-865.5 339.05,-858.5"/>
</g>
<!-- \\NovemBit\\i18n\\component\\translation\\method\\Dummy -->
<g id="node8" class="node"><title>\\NovemBit\\i18n\\component\\translation\\method\\Dummy</title>
<polygon fill="none" stroke="black" points="684.931,-880 630.931,-880 630.931,-844 684.931,-844 684.931,-880"/>
<text text-anchor="middle" x="657.931" y="-859.2" font-family="Courier,monospace" font-size="11.00">Dummy</text>
</g>
<!-- \\NovemBit\\i18n\\component\\translation\\method\\Dummy&#45;&gt;\\NovemBit\\i18n\\component\\translation\\method\\Method -->
<g id="edge7" class="edge"><title>\\NovemBit\\i18n\\component\\translation\\method\\Dummy&#45;&gt;\\NovemBit\\i18n\\component\\translation\\method\\Method</title>
<path fill="none" stroke="black" d="M630.865,-862C607.547,-862 572.688,-862 543.785,-862"/>
<polygon fill="none" stroke="black" points="543.438,-858.5 533.438,-862 543.438,-865.5 543.438,-858.5"/>
</g>
<!-- \\NovemBit\\i18n\\component\\translation\\method\\RestMethod -->
<g id="node9" class="node"><title>\\NovemBit\\i18n\\component\\translation\\method\\RestMethod</title>
<polygon fill="none" stroke="black" points="699.931,-826 615.931,-826 615.931,-790 699.931,-790 699.931,-826"/>
<text text-anchor="middle" x="657.931" y="-805.2" font-family="Courier,monospace" font-size="11.00">RestMethod</text>
</g>
<!-- \\NovemBit\\i18n\\component\\translation\\method\\RestMethod&#45;&gt;\\NovemBit\\i18n\\component\\translation\\method\\Method -->
<g id="edge18" class="edge"><title>\\NovemBit\\i18n\\component\\translation\\method\\RestMethod&#45;&gt;\\NovemBit\\i18n\\component\\translation\\method\\Method</title>
<path fill="none" stroke="black" d="M615.845,-821.487C593.862,-828.703 566.594,-837.655 543.284,-845.307"/>
<polygon fill="none" stroke="black" points="541.973,-842.053 533.563,-848.498 544.156,-848.704 541.973,-842.053"/>
</g>
<!-- \\NovemBit\\i18n\\system\\Component -->
<g id="node23" class="node"><title>\\NovemBit\\i18n\\system\\Component</title>
<polygon fill="none" stroke="black" points="124,-524 40,-524 40,-488 124,-488 124,-524"/>
<text text-anchor="start" x="48" y="-509.2" font-family="Courier,monospace" font-size="11.00">«abstract»</text>
<text text-anchor="start" x="51.5" y="-497.2" font-family="Courier,monospace" font-size="11.00">Component</text>
</g>
<!-- \\NovemBit\\i18n\\component\\translation\\Translation&#45;&gt;\\NovemBit\\i18n\\system\\Component -->
<g id="edge12" class="edge"><title>\\NovemBit\\i18n\\component\\translation\\Translation&#45;&gt;\\NovemBit\\i18n\\system\\Component</title>
<path fill="none" stroke="black" d="M237.557,-859.035C222.866,-856.019 207.452,-850.377 196.246,-840 106.217,-756.625 87.743,-599.102 83.9651,-534.617"/>
<polygon fill="none" stroke="black" points="87.4486,-534.202 83.446,-524.392 80.4576,-534.557 87.4486,-534.202"/>
</g>
<!-- \\NovemBit\\i18n\\component\\Rest -->
<g id="node11" class="node"><title>\\NovemBit\\i18n\\component\\Rest</title>
<polygon fill="none" stroke="black" points="684.931,-712 630.931,-712 630.931,-676 684.931,-676 684.931,-712"/>
<text text-anchor="middle" x="657.931" y="-691.2" font-family="Courier,monospace" font-size="11.00">Rest</text>
</g>
<!-- \\NovemBit\\i18n\\component\\Rest&#45;&gt;\\NovemBit\\i18n\\system\\Component -->
<g id="edge1" class="edge"><title>\\NovemBit\\i18n\\component\\Rest&#45;&gt;\\NovemBit\\i18n\\system\\Component</title>
<path fill="none" stroke="black" d="M630.7,-694.788C598.219,-695.583 541.209,-696.383 492.431,-694"/>
</g>
<!-- \\NovemBit\\i18n\\component\\Translation -->
<g id="node12" class="node"><title>\\NovemBit\\i18n\\component\\Translation</title>
<polygon fill="none" stroke="black" points="703.431,-766 612.431,-766 612.431,-730 703.431,-730 703.431,-766"/>
<text text-anchor="middle" x="657.931" y="-745.2" font-family="Courier,monospace" font-size="11.00">Translation</text>
</g>
<!-- \\NovemBit\\i18n\\component\\Translation&#45;&gt;\\NovemBit\\i18n\\system\\Component -->
<g id="edge6" class="edge"><title>\\NovemBit\\i18n\\component\\Translation&#45;&gt;\\NovemBit\\i18n\\system\\Component</title>
<path fill="none" stroke="black" d="M620.779,-729.899C588.152,-715.094 538.365,-696.244 492.431,-694"/>
</g>
<!-- \\NovemBit\\i18n\\component\\Languages -->
<g id="node13" class="node"><title>\\NovemBit\\i18n\\component\\Languages</title>
<polygon fill="none" stroke="black" points="696.431,-604 619.431,-604 619.431,-568 696.431,-568 696.431,-604"/>
<text text-anchor="middle" x="657.931" y="-583.2" font-family="Courier,monospace" font-size="11.00">Languages</text>
</g>
<!-- \\NovemBit\\i18n\\component\\Languages&#45;&gt;\\NovemBit\\i18n\\system\\Component -->
<g id="edge10" class="edge"><title>\\NovemBit\\i18n\\component\\Languages&#45;&gt;\\NovemBit\\i18n\\system\\Component</title>
<path fill="none" stroke="black" d="M490.431,-694C335.115,-706.511 173.779,-584.703 110.646,-530.833"/>
<polygon fill="none" stroke="black" points="112.601,-527.896 102.746,-524.006 108.024,-533.192 112.601,-527.896"/>
<path fill="none" stroke="black" d="M626.648,-604.104C621.867,-607.04 616.997,-610.076 612.431,-613 558.242,-647.699 556.7,-697.14 492.431,-694"/>
</g>
<!-- \\NovemBit\\i18n\\component\\Request -->
<g id="node14" class="node"><title>\\NovemBit\\i18n\\component\\Request</title>
<polygon fill="none" stroke="black" points="689.931,-658 625.931,-658 625.931,-622 689.931,-622 689.931,-658"/>
<text text-anchor="middle" x="657.931" y="-637.2" font-family="Courier,monospace" font-size="11.00">Request</text>
</g>
<!-- \\NovemBit\\i18n\\component\\Request&#45;&gt;\\NovemBit\\i18n\\system\\Component -->
<g id="edge13" class="edge"><title>\\NovemBit\\i18n\\component\\Request&#45;&gt;\\NovemBit\\i18n\\system\\Component</title>
<path fill="none" stroke="black" d="M625.753,-657.766C593.369,-674.394 540.767,-696.362 492.431,-694"/>
</g>
<!-- \\NovemBit\\i18n\\models\\ActiveRecord -->
<g id="node15" class="node"><title>\\NovemBit\\i18n\\models\\ActiveRecord</title>
<polygon fill="none" stroke="black" points="540.431,-112 442.431,-112 442.431,-76 540.431,-76 540.431,-112"/>
<text text-anchor="middle" x="491.431" y="-91.2" font-family="Courier,monospace" font-size="11.00">ActiveRecord</text>
</g>
<!-- \\yii\\db\\ActiveRecord -->
<g id="node25" class="node"><title>\\yii\\db\\ActiveRecord</title>
<ellipse fill="none" stroke="black" cx="283.339" cy="-18" rx="87.1846" ry="18"/>
<text text-anchor="middle" x="283.339" y="-14.3" font-family="Times New Roman,serif" font-size="14.00" fill="gray">\yii\db\ActiveRecord</text>
</g>
<!-- \\NovemBit\\i18n\\models\\ActiveRecord&#45;&gt;\\yii\\db\\ActiveRecord -->
<g id="edge2" class="edge"><title>\\NovemBit\\i18n\\models\\ActiveRecord&#45;&gt;\\yii\\db\\ActiveRecord</title>
<path fill="none" stroke="black" d="M442.371,-76.2773C410.681,-64.5908 369.177,-49.2857 336.656,-37.2929"/>
<polygon fill="none" stroke="black" points="337.465,-33.8611 326.872,-33.685 335.043,-40.4288 337.465,-33.8611"/>
</g>
<!-- \\NovemBit\\i18n\\models\\Translation -->
<g id="node16" class="node"><title>\\NovemBit\\i18n\\models\\Translation</title>
<polygon fill="none" stroke="black" points="703.431,-112 612.431,-112 612.431,-76 703.431,-76 703.431,-112"/>
<text text-anchor="middle" x="657.931" y="-91.2" font-family="Courier,monospace" font-size="11.00">Translation</text>
</g>
<!-- \\NovemBit\\i18n\\models\\Translation&#45;&gt;\\NovemBit\\i18n\\models\\ActiveRecord -->
<g id="edge17" class="edge"><title>\\NovemBit\\i18n\\models\\Translation&#45;&gt;\\NovemBit\\i18n\\models\\ActiveRecord</title>
<path fill="none" stroke="black" d="M612.415,-94C593.367,-94 570.873,-94 550.539,-94"/>
<polygon fill="none" stroke="black" points="550.445,-90.5001 540.445,-94 550.445,-97.5001 550.445,-90.5001"/>
</g>
<!-- \\NovemBit\\i18n\\system\\helpers\\URL -->
<g id="node17" class="node"><title>\\NovemBit\\i18n\\system\\helpers\\URL</title>
<polygon fill="none" stroke="black" points="310.339,-496 256.339,-496 256.339,-460 310.339,-460 310.339,-496"/>
<text text-anchor="middle" x="283.339" y="-475.2" font-family="Courier,monospace" font-size="11.00">URL</text>
</g>
<!-- \\NovemBit\\i18n\\system\\helpers\\DataType -->
<g id="node18" class="node"><title>\\NovemBit\\i18n\\system\\helpers\\DataType</title>
<polygon fill="none" stroke="black" points="318.839,-442 247.839,-442 247.839,-406 318.839,-406 318.839,-442"/>
<text text-anchor="middle" x="283.339" y="-421.2" font-family="Courier,monospace" font-size="11.00">DataType</text>
</g>
<!-- \\NovemBit\\i18n\\system\\exception\\Exception -->
<g id="node19" class="node"><title>\\NovemBit\\i18n\\system\\exception\\Exception</title>
<polygon fill="none" stroke="black" points="321.839,-362 244.839,-362 244.839,-326 321.839,-326 321.839,-362"/>
<text text-anchor="middle" x="283.339" y="-341.2" font-family="Courier,monospace" font-size="11.00">Exception</text>
</g>
<!-- \\Exception -->
<g id="node26" class="node"><title>\\Exception</title>
<ellipse fill="none" stroke="black" cx="82" cy="-18" rx="42.4939" ry="18"/>
<text text-anchor="middle" x="82" y="-14.3" font-family="Times New Roman,serif" font-size="14.00" fill="gray">xception</text>
</g>
<!-- \\NovemBit\\i18n\\system\\exception\\Exception&#45;&gt;\\Exception -->
<g id="edge15" class="edge"><title>\\NovemBit\\i18n\\system\\exception\\Exception&#45;&gt;\\Exception</title>
<path fill="none" stroke="black" d="M244.545,-325.914C227.684,-316.17 208.828,-302.696 196.246,-286 133.821,-203.161 175.992,-153.897 124.246,-64 119.785,-56.2492 113.854,-48.6678 107.885,-41.9676"/>
<polygon fill="none" stroke="black" points="110.333,-39.4611 100.946,-34.5496 105.221,-44.2433 110.333,-39.4611"/>
</g>
<!-- \\NovemBit\\i18n\\system\\parsers\\html\\Rule -->
<g id="node20" class="node"><title>\\NovemBit\\i18n\\system\\parsers\\html\\Rule</title>
<polygon fill="none" stroke="black" points="310.339,-254 256.339,-254 256.339,-218 310.339,-218 310.339,-254"/>
<text text-anchor="middle" x="283.339" y="-233.2" font-family="Courier,monospace" font-size="11.00">Rule</text>
</g>
<!-- \\NovemBit\\i18n\\system\\parsers\\HTML -->
<g id="node21" class="node"><title>\\NovemBit\\i18n\\system\\parsers\\HTML</title>
<polygon fill="none" stroke="black" points="310.339,-200 256.339,-200 256.339,-164 310.339,-164 310.339,-200"/>
<text text-anchor="middle" x="283.339" y="-179.2" font-family="Courier,monospace" font-size="11.00">HTML</text>
</g>
<!-- \\NovemBit\\i18n\\system\\component\\DB -->
<g id="node22" class="node"><title>\\NovemBit\\i18n\\system\\component\\DB</title>
<polygon fill="none" stroke="black" points="310.339,-120 256.339,-120 256.339,-84 310.339,-84 310.339,-120"/>
<text text-anchor="middle" x="283.339" y="-99.2" font-family="Courier,monospace" font-size="11.00">DB</text>
</g>
<!-- \\NovemBit\\i18n\\system\\component\\DB&#45;&gt;\\NovemBit\\i18n\\system\\Component -->
<g id="edge19" class="edge"><title>\\NovemBit\\i18n\\system\\component\\DB&#45;&gt;\\NovemBit\\i18n\\system\\Component</title>
<path fill="none" stroke="black" d="M256.276,-111.198C237.132,-119.206 211.841,-132.602 196.246,-152 115.223,-252.785 91.6547,-412.717 85.2393,-477.426"/>
<polygon fill="none" stroke="black" points="81.7277,-477.391 84.2903,-487.671 88.6979,-478.036 81.7277,-477.391"/>
</g>
<!-- \\NovemBit\\i18n\\Module -->
<g id="node24" class="node"><title>\\NovemBit\\i18n\\Module</title>
<polygon fill="none" stroke="black" points="311.839,-1304 254.839,-1304 254.839,-1268 311.839,-1268 311.839,-1304"/>
<text text-anchor="middle" x="283.339" y="-1283.2" font-family="Courier,monospace" font-size="11.00">Module</text>
</g>
<!-- \\NovemBit\\i18n\\Module&#45;&gt;\\NovemBit\\i18n\\system\\Component -->
<g id="edge9" class="edge"><title>\\NovemBit\\i18n\\Module&#45;&gt;\\NovemBit\\i18n\\system\\Component</title>
<path fill="none" stroke="black" d="M254.562,-1277.14C235.065,-1269.43 210.09,-1256.27 196.246,-1236 115.838,-1118.28 89.6817,-654.513 84.1899,-534.485"/>
<polygon fill="none" stroke="black" points="87.6765,-534.104 83.735,-524.27 80.6835,-534.416 87.6765,-534.104"/>
</g>
</g>
</svg>
